<svg xmlns="http://www.w3.org/2000/svg" version="1.1" xmlns:xlink="http://www.w3.org/1999/xlink" xmlns:svgjs="http://svgjs.dev/svgjs" viewBox="0 0 800 800" opacity="0.72" width="800" height="800"><g stroke-width="2.75" stroke="hsla(55, 94%, 54%, 1.00)" fill="none"><rect width="33.333333333333336" height="6.684210526315789" x="-16.666666666666668" y="-3.3421052631578947" stroke="none" fill="hsla(272, 99%, 54%, 1.00)" rx="3.3421052631578947" transform="rotate(45, 0, 0)"></rect><rect width="6.684210526315789" height="33.333333333333336" x="-3.3421052631578947" y="-16.666666666666668" stroke="none" fill="hsla(272, 99%, 54%, 1.00)" rx="3.3421052631578947" transform="rotate(45, 0, 0)"></rect><rect width="33.333333333333336" height="6.684210526315789" x="50" y="-3.3421052631578947" stroke="none" fill="hsla(55, 94%, 54%, 1.00)" rx="3.3421052631578947" transform="rotate(45, 66.66666666666667, 0)"></rect><rect width="6.684210526315789" height="33.333333333333336" x="63.324561403508774" y="-16.666666666666668" stroke="none" fill="hsla(55, 94%, 54%, 1.00)" rx="3.3421052631578947" transform="rotate(45, 66.66666666666667, 0)"></rect><rect width="33.333333333333336" height="6.684210526315789" x="116.66666666666667" y="-3.3421052631578947" stroke="none" fill="hsla(272, 99%, 54%, 1.00)" rx="3.3421052631578947" transform="rotate(45, 133.33333333333334, 0)"></rect><rect width="6.684210526315789" height="33.333333333333336" x="129.99122807017545" y="-16.666666666666668" stroke="none" fill="hsla(272, 99%, 54%, 1.00)" rx="3.3421052631578947" transform="rotate(45, 133.33333333333334, 0)"></rect><rect width="33.333333333333336" height="6.684210526315789" x="183.33333333333334" y="-3.3421052631578947" stroke="none" fill="hsla(55, 94%, 54%, 1.00)" rx="3.3421052631578947" transform="rotate(45, 200, 0)"></rect><rect width="6.684210526315789" height="33.333333333333336" x="196.6578947368421" y="-16.666666666666668" stroke="none" fill="hsla(55, 94%, 54%, 1.00)" rx="3.3421052631578947" transform="rotate(45, 200, 0)"></rect><rect width="33.333333333333336" height="6.684210526315789" x="250.00000000000003" y="-3.3421052631578947" stroke="none" fill="hsla(272, 99%, 54%, 1.00)" rx="3.3421052631578947" transform="rotate(45, 266.6666666666667, 0)"></rect><rect width="6.684210526315789" height="33.333333333333336" x="263.32456140350877" y="-16.666666666666668" stroke="none" fill="hsla(272, 99%, 54%, 1.00)" rx="3.3421052631578947" transform="rotate(45, 266.6666666666667, 0)"></rect><rect width="33.333333333333336" height="6.684210526315789" x="316.6666666666667" y="-3.3421052631578947" stroke="none" fill="hsla(55, 94%, 54%, 1.00)" rx="3.3421052631578947" transform="rotate(45, 333.33333333333337, 0)"></rect><rect width="6.684210526315789" height="33.333333333333336" x="329.99122807017545" y="-16.666666666666668" stroke="none" fill="hsla(55, 94%, 54%, 1.00)" rx="3.3421052631578947" transform="rotate(45, 333.33333333333337, 0)"></rect><rect width="33.333333333333336" height="6.684210526315789" x="383.33333333333337" y="-3.3421052631578947" stroke="none" fill="hsla(272, 99%, 54%, 1.00)" rx="3.3421052631578947" transform="rotate(45, 400.00000000000006, 0)"></rect><rect width="6.684210526315789" height="33.333333333333336" x="396.65789473684214" y="-16.666666666666668" stroke="none" fill="hsla(272, 99%, 54%, 1.00)" rx="3.3421052631578947" transform="rotate(45, 400.00000000000006, 0)"></rect><rect width="33.333333333333336" height="6.684210526315789" x="450.00000000000006" y="-3.3421052631578947" stroke="none" fill="hsla(55, 94%, 54%, 1.00)" rx="3.3421052631578947" transform="rotate(45, 466.66666666666674, 0)"></rect><rect width="6.684210526315789" height="33.333333333333336" x="463.3245614035088" y="-16.666666666666668" stroke="none" fill="hsla(55, 94%, 54%, 1.00)" rx="3.3421052631578947" transform="rotate(45, 466.66666666666674, 0)"></rect><rect width="33.333333333333336" height="6.684210526315789" x="516.6666666666667" y="-3.3421052631578947" stroke="none" fill="hsla(272, 99%, 54%, 1.00)" rx="3.3421052631578947" transform="rotate(45, 533.3333333333334, 0)"></rect><rect width="6.684210526315789" height="33.333333333333336" x="529.9912280701755" y="-16.666666666666668" stroke="none" fill="hsla(272, 99%, 54%, 1.00)" rx="3.3421052631578947" transform="rotate(45, 533.3333333333334, 0)"></rect><rect width="33.333333333333336" height="6.684210526315789" x="583.3333333333334" y="-3.3421052631578947" stroke="none" fill="hsla(55, 94%, 54%, 1.00)" rx="3.3421052631578947" transform="rotate(45, 600, 0)"></rect><rect width="6.684210526315789" height="33.333333333333336" x="596.6578947368421" y="-16.666666666666668" stroke="none" fill="hsla(55, 94%, 54%, 1.00)" rx="3.3421052631578947" transform="rotate(45, 600, 0)"></rect><rect width="33.333333333333336" height="6.684210526315789" x="650" y="-3.3421052631578947" stroke="none" fill="hsla(272, 99%, 54%, 1.00)" rx="3.3421052631578947" transform="rotate(45, 666.6666666666666, 0)"></rect><rect width="6.684210526315789" height="33.333333333333336" x="663.3245614035087" y="-16.666666666666668" stroke="none" fill="hsla(272, 99%, 54%, 1.00)" rx="3.3421052631578947" transform="rotate(45, 666.6666666666666, 0)"></rect><rect width="33.333333333333336" height="6.684210526315789" x="716.6666666666666" y="-3.3421052631578947" stroke="none" fill="hsla(55, 94%, 54%, 1.00)" rx="3.3421052631578947" transform="rotate(45, 733.3333333333333, 0)"></rect><rect width="6.684210526315789" height="33.333333333333336" x="729.9912280701753" y="-16.666666666666668" stroke="none" fill="hsla(55, 94%, 54%, 1.00)" rx="3.3421052631578947" transform="rotate(45, 733.3333333333333, 0)"></rect><rect width="33.333333333333336" height="6.684210526315789" x="783.3333333333333" y="-3.3421052631578947" stroke="none" fill="hsla(272, 99%, 54%, 1.00)" rx="3.3421052631578947" transform="rotate(45, 799.9999999999999, 0)"></rect><rect width="6.684210526315789" height="33.333333333333336" x="796.657894736842" y="-16.666666666666668" stroke="none" fill="hsla(272, 99%, 54%, 1.00)" rx="3.3421052631578947" transform="rotate(45, 799.9999999999999, 0)"></rect><rect width="33.333333333333336" height="6.684210526315789" x="-16.666666666666668" y="63.324561403508774" stroke="none" fill="hsla(55, 94%, 54%, 1.00)" rx="3.3421052631578947" transform="rotate(45, 0, 66.66666666666667)"></rect><rect width="6.684210526315789" height="33.333333333333336" x="-3.3421052631578947" y="50" stroke="none" fill="hsla(55, 94%, 54%, 1.00)" rx="3.3421052631578947" transform="rotate(45, 0, 66.66666666666667)"></rect><rect width="33.333333333333336" height="6.684210526315789" x="50" y="63.324561403508774" stroke="none" fill="hsla(272, 99%, 54%, 1.00)" rx="3.3421052631578947" transform="rotate(45, 66.66666666666667, 66.66666666666667)"></rect><rect width="6.684210526315789" height="33.333333333333336" x="63.324561403508774" y="50" stroke="none" fill="hsla(272, 99%, 54%, 1.00)" rx="3.3421052631578947" transform="rotate(45, 66.66666666666667, 66.66666666666667)"></rect><rect width="33.333333333333336" height="6.684210526315789" x="116.66666666666667" y="63.324561403508774" stroke="none" fill="hsla(55, 94%, 54%, 1.00)" rx="3.3421052631578947" transform="rotate(45, 133.33333333333334, 66.66666666666667)"></rect><rect width="6.684210526315789" height="33.333333333333336" x="129.99122807017545" y="50" stroke="none" fill="hsla(55, 94%, 54%, 1.00)" rx="3.3421052631578947" transform="rotate(45, 133.33333333333334, 66.66666666666667)"></rect><rect width="33.333333333333336" height="6.684210526315789" x="183.33333333333334" y="63.324561403508774" stroke="none" fill="hsla(272, 99%, 54%, 1.00)" rx="3.3421052631578947" transform="rotate(45, 200, 66.66666666666667)"></rect><rect width="6.684210526315789" height="33.333333333333336" x="196.6578947368421" y="50" stroke="none" fill="hsla(272, 99%, 54%, 1.00)" rx="3.3421052631578947" transform="rotate(45, 200, 66.66666666666667)"></rect><rect width="33.333333333333336" height="6.684210526315789" x="250.00000000000003" y="63.324561403508774" stroke="none" fill="hsla(55, 94%, 54%, 1.00)" rx="3.3421052631578947" transform="rotate(45, 266.6666666666667, 66.66666666666667)"></rect><rect width="6.684210526315789" height="33.333333333333336" x="263.32456140350877" y="50" stroke="none" fill="hsla(55, 94%, 54%, 1.00)" rx="3.3421052631578947" transform="rotate(45, 266.6666666666667, 66.66666666666667)"></rect><rect width="33.333333333333336" height="6.684210526315789" x="316.6666666666667" y="63.324561403508774" stroke="none" fill="hsla(272, 99%, 54%, 1.00)" rx="3.3421052631578947" transform="rotate(45, 333.33333333333337, 66.66666666666667)"></rect><rect width="6.684210526315789" height="33.333333333333336" x="329.99122807017545" y="50" stroke="none" fill="hsla(272, 99%, 54%, 1.00)" rx="3.3421052631578947" transform="rotate(45, 333.33333333333337, 66.66666666666667)"></rect><rect width="33.333333333333336" height="6.684210526315789" x="383.33333333333337" y="63.324561403508774" stroke="none" fill="hsla(55, 94%, 54%, 1.00)" rx="3.3421052631578947" transform="rotate(45, 400.00000000000006, 66.66666666666667)"></rect><rect width="6.684210526315789" height="33.333333333333336" x="396.65789473684214" y="50" stroke="none" fill="hsla(55, 94%, 54%, 1.00)" rx="3.3421052631578947" transform="rotate(45, 400.00000000000006, 66.66666666666667)"></rect><rect width="33.333333333333336" height="6.684210526315789" x="450.00000000000006" y="63.324561403508774" stroke="none" fill="hsla(272, 99%, 54%, 1.00)" rx="3.3421052631578947" transform="rotate(45, 466.66666666666674, 66.66666666666667)"></rect><rect width="6.684210526315789" height="33.333333333333336" x="463.3245614035088" y="50" stroke="none" fill="hsla(272, 99%, 54%, 1.00)" rx="3.3421052631578947" transform="rotate(45, 466.66666666666674, 66.66666666666667)"></rect><rect width="33.333333333333336" height="6.684210526315789" x="516.6666666666667" y="63.324561403508774" stroke="none" fill="hsla(55, 94%, 54%, 1.00)" rx="3.3421052631578947" transform="rotate(45, 533.3333333333334, 66.66666666666667)"></rect><rect width="6.684210526315789" height="33.333333333333336" x="529.9912280701755" y="50" stroke="none" fill="hsla(55, 94%, 54%, 1.00)" rx="3.3421052631578947" transform="rotate(45, 533.3333333333334, 66.66666666666667)"></rect><rect width="33.333333333333336" height="6.684210526315789" x="583.3333333333334" y="63.324561403508774" stroke="none" fill="hsla(272, 99%, 54%, 1.00)" rx="3.3421052631578947" transform="rotate(45, 600, 66.66666666666667)"></rect><rect width="6.684210526315789" height="33.333333333333336" x="596.6578947368421" y="50" stroke="none" fill="hsla(272, 99%, 54%, 1.00)" rx="3.3421052631578947" transform="rotate(45, 600, 66.66666666666667)"></rect><rect width="33.333333333333336" height="6.684210526315789" x="650" y="63.324561403508774" stroke="none" fill="hsla(55, 94%, 54%, 1.00)" rx="3.3421052631578947" transform="rotate(45, 666.6666666666666, 66.66666666666667)"></rect><rect width="6.684210526315789" height="33.333333333333336" x="663.3245614035087" y="50" stroke="none" fill="hsla(55, 94%, 54%, 1.00)" rx="3.3421052631578947" transform="rotate(45, 666.6666666666666, 66.66666666666667)"></rect><rect width="33.333333333333336" height="6.684210526315789" x="716.6666666666666" y="63.324561403508774" stroke="none" fill="hsla(272, 99%, 54%, 1.00)" rx="3.3421052631578947" transform="rotate(45, 733.3333333333333, 66.66666666666667)"></rect><rect width="6.684210526315789" height="33.333333333333336" x="729.9912280701753" y="50" stroke="none" fill="hsla(272, 99%, 54%, 1.00)" rx="3.3421052631578947" transform="rotate(45, 733.3333333333333, 66.66666666666667)"></rect><rect width="33.333333333333336" height="6.684210526315789" x="783.3333333333333" y="63.324561403508774" stroke="none" fill="hsla(55, 94%, 54%, 1.00)" rx="3.3421052631578947" transform="rotate(45, 799.9999999999999, 66.66666666666667)"></rect><rect width="6.684210526315789" height="33.333333333333336" x="796.657894736842" y="50" stroke="none" fill="hsla(55, 94%, 54%, 1.00)" rx="3.3421052631578947" transform="rotate(45, 799.9999999999999, 66.66666666666667)"></rect><rect width="33.333333333333336" height="6.684210526315789" x="-16.666666666666668" y="129.99122807017545" stroke="none" fill="hsla(272, 99%, 54%, 1.00)" rx="3.3421052631578947" transform="rotate(45, 0, 133.33333333333334)"></rect><rect width="6.684210526315789" height="33.333333333333336" x="-3.3421052631578947" y="116.66666666666667" stroke="none" fill="hsla(272, 99%, 54%, 1.00)" rx="3.3421052631578947" transform="rotate(45, 0, 133.33333333333334)"></rect><rect width="33.333333333333336" height="6.684210526315789" x="50" y="129.99122807017545" stroke="none" fill="hsla(55, 94%, 54%, 1.00)" rx="3.3421052631578947" transform="rotate(45, 66.66666666666667, 133.33333333333334)"></rect><rect width="6.684210526315789" height="33.333333333333336" x="63.324561403508774" y="116.66666666666667" stroke="none" fill="hsla(55, 94%, 54%, 1.00)" rx="3.3421052631578947" transform="rotate(45, 66.66666666666667, 133.33333333333334)"></rect><rect width="33.333333333333336" height="6.684210526315789" x="116.66666666666667" y="129.99122807017545" stroke="none" fill="hsla(272, 99%, 54%, 1.00)" rx="3.3421052631578947" transform="rotate(45, 133.33333333333334, 133.33333333333334)"></rect><rect width="6.684210526315789" height="33.333333333333336" x="129.99122807017545" y="116.66666666666667" stroke="none" fill="hsla(272, 99%, 54%, 1.00)" rx="3.3421052631578947" transform="rotate(45, 133.33333333333334, 133.33333333333334)"></rect><rect width="33.333333333333336" height="6.684210526315789" x="183.33333333333334" y="129.99122807017545" stroke="none" fill="hsla(55, 94%, 54%, 1.00)" rx="3.3421052631578947" transform="rotate(45, 200, 133.33333333333334)"></rect><rect width="6.684210526315789" height="33.333333333333336" x="196.6578947368421" y="116.66666666666667" stroke="none" fill="hsla(55, 94%, 54%, 1.00)" rx="3.3421052631578947" transform="rotate(45, 200, 133.33333333333334)"></rect><rect width="33.333333333333336" height="6.684210526315789" x="250.00000000000003" y="129.99122807017545" stroke="none" fill="hsla(272, 99%, 54%, 1.00)" rx="3.3421052631578947" transform="rotate(45, 266.6666666666667, 133.33333333333334)"></rect><rect width="6.684210526315789" height="33.333333333333336" x="263.32456140350877" y="116.66666666666667" stroke="none" fill="hsla(272, 99%, 54%, 1.00)" rx="3.3421052631578947" transform="rotate(45, 266.6666666666667, 133.33333333333334)"></rect><rect width="33.333333333333336" height="6.684210526315789" x="316.6666666666667" y="129.99122807017545" stroke="none" fill="hsla(55, 94%, 54%, 1.00)" rx="3.3421052631578947" transform="rotate(45, 333.33333333333337, 133.33333333333334)"></rect><rect width="6.684210526315789" height="33.333333333333336" x="329.99122807017545" y="116.66666666666667" stroke="none" fill="hsla(55, 94%, 54%, 1.00)" rx="3.3421052631578947" transform="rotate(45, 333.33333333333337, 133.33333333333334)"></rect><rect width="33.333333333333336" height="6.684210526315789" x="383.33333333333337" y="129.99122807017545" stroke="none" fill="hsla(272, 99%, 54%, 1.00)" rx="3.3421052631578947" transform="rotate(45, 400.00000000000006, 133.33333333333334)"></rect><rect width="6.684210526315789" height="33.333333333333336" x="396.65789473684214" y="116.66666666666667" stroke="none" fill="hsla(272, 99%, 54%, 1.00)" rx="3.3421052631578947" transform="rotate(45, 400.00000000000006, 133.33333333333334)"></rect><rect width="33.333333333333336" height="6.684210526315789" x="450.00000000000006" y="129.99122807017545" stroke="none" fill="hsla(55, 94%, 54%, 1.00)" rx="3.3421052631578947" transform="rotate(45, 466.66666666666674, 133.33333333333334)"></rect><rect width="6.684210526315789" height="33.333333333333336" x="463.3245614035088" y="116.66666666666667" stroke="none" fill="hsla(55, 94%, 54%, 1.00)" rx="3.3421052631578947" transform="rotate(45, 466.66666666666674, 133.33333333333334)"></rect><rect width="33.333333333333336" height="6.684210526315789" x="516.6666666666667" y="129.99122807017545" stroke="none" fill="hsla(272, 99%, 54%, 1.00)" rx="3.3421052631578947" transform="rotate(45, 533.3333333333334, 133.33333333333334)"></rect><rect width="6.684210526315789" height="33.333333333333336" x="529.9912280701755" y="116.66666666666667" stroke="none" fill="hsla(272, 99%, 54%, 1.00)" rx="3.3421052631578947" transform="rotate(45, 533.3333333333334, 133.33333333333334)"></rect><rect width="33.333333333333336" height="6.684210526315789" x="583.3333333333334" y="129.99122807017545" stroke="none" fill="hsla(55, 94%, 54%, 1.00)" rx="3.3421052631578947" transform="rotate(45, 600, 133.33333333333334)"></rect><rect width="6.684210526315789" height="33.333333333333336" x="596.6578947368421" y="116.66666666666667" stroke="none" fill="hsla(55, 94%, 54%, 1.00)" rx="3.3421052631578947" transform="rotate(45, 600, 133.33333333333334)"></rect><rect width="33.333333333333336" height="6.684210526315789" x="650" y="129.99122807017545" stroke="none" fill="hsla(272, 99%, 54%, 1.00)" rx="3.3421052631578947" transform="rotate(45, 666.6666666666666, 133.33333333333334)"></rect><rect width="6.684210526315789" height="33.333333333333336" x="663.3245614035087" y="116.66666666666667" stroke="none" fill="hsla(272, 99%, 54%, 1.00)" rx="3.3421052631578947" transform="rotate(45, 666.6666666666666, 133.33333333333334)"></rect><rect width="33.333333333333336" height="6.684210526315789" x="716.6666666666666" y="129.99122807017545" stroke="none" fill="hsla(55, 94%, 54%, 1.00)" rx="3.3421052631578947" transform="rotate(45, 733.3333333333333, 133.33333333333334)"></rect><rect width="6.684210526315789" height="33.333333333333336" x="729.9912280701753" y="116.66666666666667" stroke="none" fill="hsla(55, 94%, 54%, 1.00)" rx="3.3421052631578947" transform="rotate(45, 733.3333333333333, 133.33333333333334)"></rect><rect width="33.333333333333336" height="6.684210526315789" x="783.3333333333333" y="129.99122807017545" stroke="none" fill="hsla(272, 99%, 54%, 1.00)" rx="3.3421052631578947" transform="rotate(45, 799.9999999999999, 133.33333333333334)"></rect><rect width="6.684210526315789" height="33.333333333333336" x="796.657894736842" y="116.66666666666667" stroke="none" fill="hsla(272, 99%, 54%, 1.00)" rx="3.3421052631578947" transform="rotate(45, 799.9999999999999, 133.33333333333334)"></rect><rect width="33.333333333333336" height="6.684210526315789" x="-16.666666666666668" y="196.6578947368421" stroke="none" fill="hsla(55, 94%, 54%, 1.00)" rx="3.3421052631578947" transform="rotate(45, 0, 200)"></rect><rect width="6.684210526315789" height="33.333333333333336" x="-3.3421052631578947" y="183.33333333333334" stroke="none" fill="hsla(55, 94%, 54%, 1.00)" rx="3.3421052631578947" transform="rotate(45, 0, 200)"></rect><rect width="33.333333333333336" height="6.684210526315789" x="50" y="196.6578947368421" stroke="none" fill="hsla(272, 99%, 54%, 1.00)" rx="3.3421052631578947" transform="rotate(45, 66.66666666666667, 200)"></rect><rect width="6.684210526315789" height="33.333333333333336" x="63.324561403508774" y="183.33333333333334" stroke="none" fill="hsla(272, 99%, 54%, 1.00)" rx="3.3421052631578947" transform="rotate(45, 66.66666666666667, 200)"></rect><rect width="33.333333333333336" height="6.684210526315789" x="116.66666666666667" y="196.6578947368421" stroke="none" fill="hsla(55, 94%, 54%, 1.00)" rx="3.3421052631578947" transform="rotate(45, 133.33333333333334, 200)"></rect><rect width="6.684210526315789" height="33.333333333333336" x="129.99122807017545" y="183.33333333333334" stroke="none" fill="hsla(55, 94%, 54%, 1.00)" rx="3.3421052631578947" transform="rotate(45, 133.33333333333334, 200)"></rect><rect width="33.333333333333336" height="6.684210526315789" x="183.33333333333334" y="196.6578947368421" stroke="none" fill="hsla(272, 99%, 54%, 1.00)" rx="3.3421052631578947" transform="rotate(45, 200, 200)"></rect><rect width="6.684210526315789" height="33.333333333333336" x="196.6578947368421" y="183.33333333333334" stroke="none" fill="hsla(272, 99%, 54%, 1.00)" rx="3.3421052631578947" transform="rotate(45, 200, 200)"></rect><rect width="33.333333333333336" height="6.684210526315789" x="250.00000000000003" y="196.6578947368421" stroke="none" fill="hsla(55, 94%, 54%, 1.00)" rx="3.3421052631578947" transform="rotate(45, 266.6666666666667, 200)"></rect><rect width="6.684210526315789" height="33.333333333333336" x="263.32456140350877" y="183.33333333333334" stroke="none" fill="hsla(55, 94%, 54%, 1.00)" rx="3.3421052631578947" transform="rotate(45, 266.6666666666667, 200)"></rect><rect width="33.333333333333336" height="6.684210526315789" x="316.6666666666667" y="196.6578947368421" stroke="none" fill="hsla(272, 99%, 54%, 1.00)" rx="3.3421052631578947" transform="rotate(45, 333.33333333333337, 200)"></rect><rect width="6.684210526315789" height="33.333333333333336" x="329.99122807017545" y="183.33333333333334" stroke="none" fill="hsla(272, 99%, 54%, 1.00)" rx="3.3421052631578947" transform="rotate(45, 333.33333333333337, 200)"></rect><rect width="33.333333333333336" height="6.684210526315789" x="383.33333333333337" y="196.6578947368421" stroke="none" fill="hsla(55, 94%, 54%, 1.00)" rx="3.3421052631578947" transform="rotate(45, 400.00000000000006, 200)"></rect><rect width="6.684210526315789" height="33.333333333333336" x="396.65789473684214" y="183.33333333333334" stroke="none" fill="hsla(55, 94%, 54%, 1.00)" rx="3.3421052631578947" transform="rotate(45, 400.00000000000006, 200)"></rect><rect width="33.333333333333336" height="6.684210526315789" x="450.00000000000006" y="196.6578947368421" stroke="none" fill="hsla(272, 99%, 54%, 1.00)" rx="3.3421052631578947" transform="rotate(45, 466.66666666666674, 200)"></rect><rect width="6.684210526315789" height="33.333333333333336" x="463.3245614035088" y="183.33333333333334" stroke="none" fill="hsla(272, 99%, 54%, 1.00)" rx="3.3421052631578947" transform="rotate(45, 466.66666666666674, 200)"></rect><rect width="33.333333333333336" height="6.684210526315789" x="516.6666666666667" y="196.6578947368421" stroke="none" fill="hsla(55, 94%, 54%, 1.00)" rx="3.3421052631578947" transform="rotate(45, 533.3333333333334, 200)"></rect><rect width="6.684210526315789" height="33.333333333333336" x="529.9912280701755" y="183.33333333333334" stroke="none" fill="hsla(55, 94%, 54%, 1.00)" rx="3.3421052631578947" transform="rotate(45, 533.3333333333334, 200)"></rect><rect width="33.333333333333336" height="6.684210526315789" x="583.3333333333334" y="196.6578947368421" stroke="none" fill="hsla(272, 99%, 54%, 1.00)" rx="3.3421052631578947" transform="rotate(45, 600, 200)"></rect><rect width="6.684210526315789" height="33.333333333333336" x="596.6578947368421" y="183.33333333333334" stroke="none" fill="hsla(272, 99%, 54%, 1.00)" rx="3.3421052631578947" transform="rotate(45, 600, 200)"></rect><rect width="33.333333333333336" height="6.684210526315789" x="650" y="196.6578947368421" stroke="none" fill="hsla(55, 94%, 54%, 1.00)" rx="3.3421052631578947" transform="rotate(45, 666.6666666666666, 200)"></rect><rect width="6.684210526315789" height="33.333333333333336" x="663.3245614035087" y="183.33333333333334" stroke="none" fill="hsla(55, 94%, 54%, 1.00)" rx="3.3421052631578947" transform="rotate(45, 666.6666666666666, 200)"></rect><rect width="33.333333333333336" height="6.684210526315789" x="716.6666666666666" y="196.6578947368421" stroke="none" fill="hsla(272, 99%, 54%, 1.00)" rx="3.3421052631578947" transform="rotate(45, 733.3333333333333, 200)"></rect><rect width="6.684210526315789" height="33.333333333333336" x="729.9912280701753" y="183.33333333333334" stroke="none" fill="hsla(272, 99%, 54%, 1.00)" rx="3.3421052631578947" transform="rotate(45, 733.3333333333333, 200)"></rect><rect width="33.333333333333336" height="6.684210526315789" x="783.3333333333333" y="196.6578947368421" stroke="none" fill="hsla(55, 94%, 54%, 1.00)" rx="3.3421052631578947" transform="rotate(45, 799.9999999999999, 200)"></rect><rect width="6.684210526315789" height="33.333333333333336" x="796.657894736842" y="183.33333333333334" stroke="none" fill="hsla(55, 94%, 54%, 1.00)" rx="3.3421052631578947" transform="rotate(45, 799.9999999999999, 200)"></rect><rect width="33.333333333333336" height="6.684210526315789" x="-16.666666666666668" y="263.32456140350877" stroke="none" fill="hsla(272, 99%, 54%, 1.00)" rx="3.3421052631578947" transform="rotate(45, 0, 266.6666666666667)"></rect><rect width="6.684210526315789" height="33.333333333333336" x="-3.3421052631578947" y="250.00000000000003" stroke="none" fill="hsla(272, 99%, 54%, 1.00)" rx="3.3421052631578947" transform="rotate(45, 0, 266.6666666666667)"></rect><rect width="33.333333333333336" height="6.684210526315789" x="50" y="263.32456140350877" stroke="none" fill="hsla(55, 94%, 54%, 1.00)" rx="3.3421052631578947" transform="rotate(45, 66.66666666666667, 266.6666666666667)"></rect><rect width="6.684210526315789" height="33.333333333333336" x="63.324561403508774" y="250.00000000000003" stroke="none" fill="hsla(55, 94%, 54%, 1.00)" rx="3.3421052631578947" transform="rotate(45, 66.66666666666667, 266.6666666666667)"></rect><rect width="33.333333333333336" height="6.684210526315789" x="116.66666666666667" y="263.32456140350877" stroke="none" fill="hsla(272, 99%, 54%, 1.00)" rx="3.3421052631578947" transform="rotate(45, 133.33333333333334, 266.6666666666667)"></rect><rect width="6.684210526315789" height="33.333333333333336" x="129.99122807017545" y="250.00000000000003" stroke="none" fill="hsla(272, 99%, 54%, 1.00)" rx="3.3421052631578947" transform="rotate(45, 133.33333333333334, 266.6666666666667)"></rect><rect width="33.333333333333336" height="6.684210526315789" x="183.33333333333334" y="263.32456140350877" stroke="none" fill="hsla(55, 94%, 54%, 1.00)" rx="3.3421052631578947" transform="rotate(45, 200, 266.6666666666667)"></rect><rect width="6.684210526315789" height="33.333333333333336" x="196.6578947368421" y="250.00000000000003" stroke="none" fill="hsla(55, 94%, 54%, 1.00)" rx="3.3421052631578947" transform="rotate(45, 200, 266.6666666666667)"></rect><rect width="33.333333333333336" height="6.684210526315789" x="250.00000000000003" y="263.32456140350877" stroke="none" fill="hsla(272, 99%, 54%, 1.00)" rx="3.3421052631578947" transform="rotate(45, 266.6666666666667, 266.6666666666667)"></rect><rect width="6.684210526315789" height="33.333333333333336" x="263.32456140350877" y="250.00000000000003" stroke="none" fill="hsla(272, 99%, 54%, 1.00)" rx="3.3421052631578947" transform="rotate(45, 266.6666666666667, 266.6666666666667)"></rect><rect width="33.333333333333336" height="6.684210526315789" x="316.6666666666667" y="263.32456140350877" stroke="none" fill="hsla(55, 94%, 54%, 1.00)" rx="3.3421052631578947" transform="rotate(45, 333.33333333333337, 266.6666666666667)"></rect><rect width="6.684210526315789" height="33.333333333333336" x="329.99122807017545" y="250.00000000000003" stroke="none" fill="hsla(55, 94%, 54%, 1.00)" rx="3.3421052631578947" transform="rotate(45, 333.33333333333337, 266.6666666666667)"></rect><rect width="33.333333333333336" height="6.684210526315789" x="383.33333333333337" y="263.32456140350877" stroke="none" fill="hsla(272, 99%, 54%, 1.00)" rx="3.3421052631578947" transform="rotate(45, 400.00000000000006, 266.6666666666667)"></rect><rect width="6.684210526315789" height="33.333333333333336" x="396.65789473684214" y="250.00000000000003" stroke="none" fill="hsla(272, 99%, 54%, 1.00)" rx="3.3421052631578947" transform="rotate(45, 400.00000000000006, 266.6666666666667)"></rect><rect width="33.333333333333336" height="6.684210526315789" x="450.00000000000006" y="263.32456140350877" stroke="none" fill="hsla(55, 94%, 54%, 1.00)" rx="3.3421052631578947" transform="rotate(45, 466.66666666666674, 266.6666666666667)"></rect><rect width="6.684210526315789" height="33.333333333333336" x="463.3245614035088" y="250.00000000000003" stroke="none" fill="hsla(55, 94%, 54%, 1.00)" rx="3.3421052631578947" transform="rotate(45, 466.66666666666674, 266.6666666666667)"></rect><rect width="33.333333333333336" height="6.684210526315789" x="516.6666666666667" y="263.32456140350877" stroke="none" fill="hsla(272, 99%, 54%, 1.00)" rx="3.3421052631578947" transform="rotate(45, 533.3333333333334, 266.6666666666667)"></rect><rect width="6.684210526315789" height="33.333333333333336" x="529.9912280701755" y="250.00000000000003" stroke="none" fill="hsla(272, 99%, 54%, 1.00)" rx="3.3421052631578947" transform="rotate(45, 533.3333333333334, 266.6666666666667)"></rect><rect width="33.333333333333336" height="6.684210526315789" x="583.3333333333334" y="263.32456140350877" stroke="none" fill="hsla(55, 94%, 54%, 1.00)" rx="3.3421052631578947" transform="rotate(45, 600, 266.6666666666667)"></rect><rect width="6.684210526315789" height="33.333333333333336" x="596.6578947368421" y="250.00000000000003" stroke="none" fill="hsla(55, 94%, 54%, 1.00)" rx="3.3421052631578947" transform="rotate(45, 600, 266.6666666666667)"></rect><rect width="33.333333333333336" height="6.684210526315789" x="650" y="263.32456140350877" stroke="none" fill="hsla(272, 99%, 54%, 1.00)" rx="3.3421052631578947" transform="rotate(45, 666.6666666666666, 266.6666666666667)"></rect><rect width="6.684210526315789" height="33.333333333333336" x="663.3245614035087" y="250.00000000000003" stroke="none" fill="hsla(272, 99%, 54%, 1.00)" rx="3.3421052631578947" transform="rotate(45, 666.6666666666666, 266.6666666666667)"></rect><rect width="33.333333333333336" height="6.684210526315789" x="716.6666666666666" y="263.32456140350877" stroke="none" fill="hsla(55, 94%, 54%, 1.00)" rx="3.3421052631578947" transform="rotate(45, 733.3333333333333, 266.6666666666667)"></rect><rect width="6.684210526315789" height="33.333333333333336" x="729.9912280701753" y="250.00000000000003" stroke="none" fill="hsla(55, 94%, 54%, 1.00)" rx="3.3421052631578947" transform="rotate(45, 733.3333333333333, 266.6666666666667)"></rect><rect width="33.333333333333336" height="6.684210526315789" x="783.3333333333333" y="263.32456140350877" stroke="none" fill="hsla(272, 99%, 54%, 1.00)" rx="3.3421052631578947" transform="rotate(45, 799.9999999999999, 266.6666666666667)"></rect><rect width="6.684210526315789" height="33.333333333333336" x="796.657894736842" y="250.00000000000003" stroke="none" fill="hsla(272, 99%, 54%, 1.00)" rx="3.3421052631578947" transform="rotate(45, 799.9999999999999, 266.6666666666667)"></rect><rect width="33.333333333333336" height="6.684210526315789" x="-16.666666666666668" y="329.99122807017545" stroke="none" fill="hsla(55, 94%, 54%, 1.00)" rx="3.3421052631578947" transform="rotate(45, 0, 333.33333333333337)"></rect><rect width="6.684210526315789" height="33.333333333333336" x="-3.3421052631578947" y="316.6666666666667" stroke="none" fill="hsla(55, 94%, 54%, 1.00)" rx="3.3421052631578947" transform="rotate(45, 0, 333.33333333333337)"></rect><rect width="33.333333333333336" height="6.684210526315789" x="50" y="329.99122807017545" stroke="none" fill="hsla(272, 99%, 54%, 1.00)" rx="3.3421052631578947" transform="rotate(45, 66.66666666666667, 333.33333333333337)"></rect><rect width="6.684210526315789" height="33.333333333333336" x="63.324561403508774" y="316.6666666666667" stroke="none" fill="hsla(272, 99%, 54%, 1.00)" rx="3.3421052631578947" transform="rotate(45, 66.66666666666667, 333.33333333333337)"></rect><rect width="33.333333333333336" height="6.684210526315789" x="116.66666666666667" y="329.99122807017545" stroke="none" fill="hsla(55, 94%, 54%, 1.00)" rx="3.3421052631578947" transform="rotate(45, 133.33333333333334, 333.33333333333337)"></rect><rect width="6.684210526315789" height="33.333333333333336" x="129.99122807017545" y="316.6666666666667" stroke="none" fill="hsla(55, 94%, 54%, 1.00)" rx="3.3421052631578947" transform="rotate(45, 133.33333333333334, 333.33333333333337)"></rect><rect width="33.333333333333336" height="6.684210526315789" x="183.33333333333334" y="329.99122807017545" stroke="none" fill="hsla(272, 99%, 54%, 1.00)" rx="3.3421052631578947" transform="rotate(45, 200, 333.33333333333337)"></rect><rect width="6.684210526315789" height="33.333333333333336" x="196.6578947368421" y="316.6666666666667" stroke="none" fill="hsla(272, 99%, 54%, 1.00)" rx="3.3421052631578947" transform="rotate(45, 200, 333.33333333333337)"></rect><rect width="33.333333333333336" height="6.684210526315789" x="250.00000000000003" y="329.99122807017545" stroke="none" fill="hsla(55, 94%, 54%, 1.00)" rx="3.3421052631578947" transform="rotate(45, 266.6666666666667, 333.33333333333337)"></rect><rect width="6.684210526315789" height="33.333333333333336" x="263.32456140350877" y="316.6666666666667" stroke="none" fill="hsla(55, 94%, 54%, 1.00)" rx="3.3421052631578947" transform="rotate(45, 266.6666666666667, 333.33333333333337)"></rect><rect width="33.333333333333336" height="6.684210526315789" x="316.6666666666667" y="329.99122807017545" stroke="none" fill="hsla(272, 99%, 54%, 1.00)" rx="3.3421052631578947" transform="rotate(45, 333.33333333333337, 333.33333333333337)"></rect><rect width="6.684210526315789" height="33.333333333333336" x="329.99122807017545" y="316.6666666666667" stroke="none" fill="hsla(272, 99%, 54%, 1.00)" rx="3.3421052631578947" transform="rotate(45, 333.33333333333337, 333.33333333333337)"></rect><rect width="33.333333333333336" height="6.684210526315789" x="383.33333333333337" y="329.99122807017545" stroke="none" fill="hsla(55, 94%, 54%, 1.00)" rx="3.3421052631578947" transform="rotate(45, 400.00000000000006, 333.33333333333337)"></rect><rect width="6.684210526315789" height="33.333333333333336" x="396.65789473684214" y="316.6666666666667" stroke="none" fill="hsla(55, 94%, 54%, 1.00)" rx="3.3421052631578947" transform="rotate(45, 400.00000000000006, 333.33333333333337)"></rect><rect width="33.333333333333336" height="6.684210526315789" x="450.00000000000006" y="329.99122807017545" stroke="none" fill="hsla(272, 99%, 54%, 1.00)" rx="3.3421052631578947" transform="rotate(45, 466.66666666666674, 333.33333333333337)"></rect><rect width="6.684210526315789" height="33.333333333333336" x="463.3245614035088" y="316.6666666666667" stroke="none" fill="hsla(272, 99%, 54%, 1.00)" rx="3.3421052631578947" transform="rotate(45, 466.66666666666674, 333.33333333333337)"></rect><rect width="33.333333333333336" height="6.684210526315789" x="516.6666666666667" y="329.99122807017545" stroke="none" fill="hsla(55, 94%, 54%, 1.00)" rx="3.3421052631578947" transform="rotate(45, 533.3333333333334, 333.33333333333337)"></rect><rect width="6.684210526315789" height="33.333333333333336" x="529.9912280701755" y="316.6666666666667" stroke="none" fill="hsla(55, 94%, 54%, 1.00)" rx="3.3421052631578947" transform="rotate(45, 533.3333333333334, 333.33333333333337)"></rect><rect width="33.333333333333336" height="6.684210526315789" x="583.3333333333334" y="329.99122807017545" stroke="none" fill="hsla(272, 99%, 54%, 1.00)" rx="3.3421052631578947" transform="rotate(45, 600, 333.33333333333337)"></rect><rect width="6.684210526315789" height="33.333333333333336" x="596.6578947368421" y="316.6666666666667" stroke="none" fill="hsla(272, 99%, 54%, 1.00)" rx="3.3421052631578947" transform="rotate(45, 600, 333.33333333333337)"></rect><rect width="33.333333333333336" height="6.684210526315789" x="650" y="329.99122807017545" stroke="none" fill="hsla(55, 94%, 54%, 1.00)" rx="3.3421052631578947" transform="rotate(45, 666.6666666666666, 333.33333333333337)"></rect><rect width="6.684210526315789" height="33.333333333333336" x="663.3245614035087" y="316.6666666666667" stroke="none" fill="hsla(55, 94%, 54%, 1.00)" rx="3.3421052631578947" transform="rotate(45, 666.6666666666666, 333.33333333333337)"></rect><rect width="33.333333333333336" height="6.684210526315789" x="716.6666666666666" y="329.99122807017545" stroke="none" fill="hsla(272, 99%, 54%, 1.00)" rx="3.3421052631578947" transform="rotate(45, 733.3333333333333, 333.33333333333337)"></rect><rect width="6.684210526315789" height="33.333333333333336" x="729.9912280701753" y="316.6666666666667" stroke="none" fill="hsla(272, 99%, 54%, 1.00)" rx="3.3421052631578947" transform="rotate(45, 733.3333333333333, 333.33333333333337)"></rect><rect width="33.333333333333336" height="6.684210526315789" x="783.3333333333333" y="329.99122807017545" stroke="none" fill="hsla(55, 94%, 54%, 1.00)" rx="3.3421052631578947" transform="rotate(45, 799.9999999999999, 333.33333333333337)"></rect><rect width="6.684210526315789" height="33.333333333333336" x="796.657894736842" y="316.6666666666667" stroke="none" fill="hsla(55, 94%, 54%, 1.00)" rx="3.3421052631578947" transform="rotate(45, 799.9999999999999, 333.33333333333337)"></rect><rect width="33.333333333333336" height="6.684210526315789" x="-16.666666666666668" y="396.65789473684214" stroke="none" fill="hsla(272, 99%, 54%, 1.00)" rx="3.3421052631578947" transform="rotate(45, 0, 400.00000000000006)"></rect><rect width="6.684210526315789" height="33.333333333333336" x="-3.3421052631578947" y="383.33333333333337" stroke="none" fill="hsla(272, 99%, 54%, 1.00)" rx="3.3421052631578947" transform="rotate(45, 0, 400.00000000000006)"></rect><rect width="33.333333333333336" height="6.684210526315789" x="50" y="396.65789473684214" stroke="none" fill="hsla(55, 94%, 54%, 1.00)" rx="3.3421052631578947" transform="rotate(45, 66.66666666666667, 400.00000000000006)"></rect><rect width="6.684210526315789" height="33.333333333333336" x="63.324561403508774" y="383.33333333333337" stroke="none" fill="hsla(55, 94%, 54%, 1.00)" rx="3.3421052631578947" transform="rotate(45, 66.66666666666667, 400.00000000000006)"></rect><rect width="33.333333333333336" height="6.684210526315789" x="116.66666666666667" y="396.65789473684214" stroke="none" fill="hsla(272, 99%, 54%, 1.00)" rx="3.3421052631578947" transform="rotate(45, 133.33333333333334, 400.00000000000006)"></rect><rect width="6.684210526315789" height="33.333333333333336" x="129.99122807017545" y="383.33333333333337" stroke="none" fill="hsla(272, 99%, 54%, 1.00)" rx="3.3421052631578947" transform="rotate(45, 133.33333333333334, 400.00000000000006)"></rect><rect width="33.333333333333336" height="6.684210526315789" x="183.33333333333334" y="396.65789473684214" stroke="none" fill="hsla(55, 94%, 54%, 1.00)" rx="3.3421052631578947" transform="rotate(45, 200, 400.00000000000006)"></rect><rect width="6.684210526315789" height="33.333333333333336" x="196.6578947368421" y="383.33333333333337" stroke="none" fill="hsla(55, 94%, 54%, 1.00)" rx="3.3421052631578947" transform="rotate(45, 200, 400.00000000000006)"></rect><rect width="33.333333333333336" height="6.684210526315789" x="250.00000000000003" y="396.65789473684214" stroke="none" fill="hsla(272, 99%, 54%, 1.00)" rx="3.3421052631578947" transform="rotate(45, 266.6666666666667, 400.00000000000006)"></rect><rect width="6.684210526315789" height="33.333333333333336" x="263.32456140350877" y="383.33333333333337" stroke="none" fill="hsla(272, 99%, 54%, 1.00)" rx="3.3421052631578947" transform="rotate(45, 266.6666666666667, 400.00000000000006)"></rect><rect width="33.333333333333336" height="6.684210526315789" x="316.6666666666667" y="396.65789473684214" stroke="none" fill="hsla(55, 94%, 54%, 1.00)" rx="3.3421052631578947" transform="rotate(45, 333.33333333333337, 400.00000000000006)"></rect><rect width="6.684210526315789" height="33.333333333333336" x="329.99122807017545" y="383.33333333333337" stroke="none" fill="hsla(55, 94%, 54%, 1.00)" rx="3.3421052631578947" transform="rotate(45, 333.33333333333337, 400.00000000000006)"></rect><rect width="33.333333333333336" height="6.684210526315789" x="383.33333333333337" y="396.65789473684214" stroke="none" fill="hsla(272, 99%, 54%, 1.00)" rx="3.3421052631578947" transform="rotate(45, 400.00000000000006, 400.00000000000006)"></rect><rect width="6.684210526315789" height="33.333333333333336" x="396.65789473684214" y="383.33333333333337" stroke="none" fill="hsla(272, 99%, 54%, 1.00)" rx="3.3421052631578947" transform="rotate(45, 400.00000000000006, 400.00000000000006)"></rect><rect width="33.333333333333336" height="6.684210526315789" x="450.00000000000006" y="396.65789473684214" stroke="none" fill="hsla(55, 94%, 54%, 1.00)" rx="3.3421052631578947" transform="rotate(45, 466.66666666666674, 400.00000000000006)"></rect><rect width="6.684210526315789" height="33.333333333333336" x="463.3245614035088" y="383.33333333333337" stroke="none" fill="hsla(55, 94%, 54%, 1.00)" rx="3.3421052631578947" transform="rotate(45, 466.66666666666674, 400.00000000000006)"></rect><rect width="33.333333333333336" height="6.684210526315789" x="516.6666666666667" y="396.65789473684214" stroke="none" fill="hsla(272, 99%, 54%, 1.00)" rx="3.3421052631578947" transform="rotate(45, 533.3333333333334, 400.00000000000006)"></rect><rect width="6.684210526315789" height="33.333333333333336" x="529.9912280701755" y="383.33333333333337" stroke="none" fill="hsla(272, 99%, 54%, 1.00)" rx="3.3421052631578947" transform="rotate(45, 533.3333333333334, 400.00000000000006)"></rect><rect width="33.333333333333336" height="6.684210526315789" x="583.3333333333334" y="396.65789473684214" stroke="none" fill="hsla(55, 94%, 54%, 1.00)" rx="3.3421052631578947" transform="rotate(45, 600, 400.00000000000006)"></rect><rect width="6.684210526315789" height="33.333333333333336" x="596.6578947368421" y="383.33333333333337" stroke="none" fill="hsla(55, 94%, 54%, 1.00)" rx="3.3421052631578947" transform="rotate(45, 600, 400.00000000000006)"></rect><rect width="33.333333333333336" height="6.684210526315789" x="650" y="396.65789473684214" stroke="none" fill="hsla(272, 99%, 54%, 1.00)" rx="3.3421052631578947" transform="rotate(45, 666.6666666666666, 400.00000000000006)"></rect><rect width="6.684210526315789" height="33.333333333333336" x="663.3245614035087" y="383.33333333333337" stroke="none" fill="hsla(272, 99%, 54%, 1.00)" rx="3.3421052631578947" transform="rotate(45, 666.6666666666666, 400.00000000000006)"></rect><rect width="33.333333333333336" height="6.684210526315789" x="716.6666666666666" y="396.65789473684214" stroke="none" fill="hsla(55, 94%, 54%, 1.00)" rx="3.3421052631578947" transform="rotate(45, 733.3333333333333, 400.00000000000006)"></rect><rect width="6.684210526315789" height="33.333333333333336" x="729.9912280701753" y="383.33333333333337" stroke="none" fill="hsla(55, 94%, 54%, 1.00)" rx="3.3421052631578947" transform="rotate(45, 733.3333333333333, 400.00000000000006)"></rect><rect width="33.333333333333336" height="6.684210526315789" x="783.3333333333333" y="396.65789473684214" stroke="none" fill="hsla(272, 99%, 54%, 1.00)" rx="3.3421052631578947" transform="rotate(45, 799.9999999999999, 400.00000000000006)"></rect><rect width="6.684210526315789" height="33.333333333333336" x="796.657894736842" y="383.33333333333337" stroke="none" fill="hsla(272, 99%, 54%, 1.00)" rx="3.3421052631578947" transform="rotate(45, 799.9999999999999, 400.00000000000006)"></rect><rect width="33.333333333333336" height="6.684210526315789" x="-16.666666666666668" y="463.3245614035088" stroke="none" fill="hsla(55, 94%, 54%, 1.00)" rx="3.3421052631578947" transform="rotate(45, 0, 466.66666666666674)"></rect><rect width="6.684210526315789" height="33.333333333333336" x="-3.3421052631578947" y="450.00000000000006" stroke="none" fill="hsla(55, 94%, 54%, 1.00)" rx="3.3421052631578947" transform="rotate(45, 0, 466.66666666666674)"></rect><rect width="33.333333333333336" height="6.684210526315789" x="50" y="463.3245614035088" stroke="none" fill="hsla(272, 99%, 54%, 1.00)" rx="3.3421052631578947" transform="rotate(45, 66.66666666666667, 466.66666666666674)"></rect><rect width="6.684210526315789" height="33.333333333333336" x="63.324561403508774" y="450.00000000000006" stroke="none" fill="hsla(272, 99%, 54%, 1.00)" rx="3.3421052631578947" transform="rotate(45, 66.66666666666667, 466.66666666666674)"></rect><rect width="33.333333333333336" height="6.684210526315789" x="116.66666666666667" y="463.3245614035088" stroke="none" fill="hsla(55, 94%, 54%, 1.00)" rx="3.3421052631578947" transform="rotate(45, 133.33333333333334, 466.66666666666674)"></rect><rect width="6.684210526315789" height="33.333333333333336" x="129.99122807017545" y="450.00000000000006" stroke="none" fill="hsla(55, 94%, 54%, 1.00)" rx="3.3421052631578947" transform="rotate(45, 133.33333333333334, 466.66666666666674)"></rect><rect width="33.333333333333336" height="6.684210526315789" x="183.33333333333334" y="463.3245614035088" stroke="none" fill="hsla(272, 99%, 54%, 1.00)" rx="3.3421052631578947" transform="rotate(45, 200, 466.66666666666674)"></rect><rect width="6.684210526315789" height="33.333333333333336" x="196.6578947368421" y="450.00000000000006" stroke="none" fill="hsla(272, 99%, 54%, 1.00)" rx="3.3421052631578947" transform="rotate(45, 200, 466.66666666666674)"></rect><rect width="33.333333333333336" height="6.684210526315789" x="250.00000000000003" y="463.3245614035088" stroke="none" fill="hsla(55, 94%, 54%, 1.00)" rx="3.3421052631578947" transform="rotate(45, 266.6666666666667, 466.66666666666674)"></rect><rect width="6.684210526315789" height="33.333333333333336" x="263.32456140350877" y="450.00000000000006" stroke="none" fill="hsla(55, 94%, 54%, 1.00)" rx="3.3421052631578947" transform="rotate(45, 266.6666666666667, 466.66666666666674)"></rect><rect width="33.333333333333336" height="6.684210526315789" x="316.6666666666667" y="463.3245614035088" stroke="none" fill="hsla(272, 99%, 54%, 1.00)" rx="3.3421052631578947" transform="rotate(45, 333.33333333333337, 466.66666666666674)"></rect><rect width="6.684210526315789" height="33.333333333333336" x="329.99122807017545" y="450.00000000000006" stroke="none" fill="hsla(272, 99%, 54%, 1.00)" rx="3.3421052631578947" transform="rotate(45, 333.33333333333337, 466.66666666666674)"></rect><rect width="33.333333333333336" height="6.684210526315789" x="383.33333333333337" y="463.3245614035088" stroke="none" fill="hsla(55, 94%, 54%, 1.00)" rx="3.3421052631578947" transform="rotate(45, 400.00000000000006, 466.66666666666674)"></rect><rect width="6.684210526315789" height="33.333333333333336" x="396.65789473684214" y="450.00000000000006" stroke="none" fill="hsla(55, 94%, 54%, 1.00)" rx="3.3421052631578947" transform="rotate(45, 400.00000000000006, 466.66666666666674)"></rect><rect width="33.333333333333336" height="6.684210526315789" x="450.00000000000006" y="463.3245614035088" stroke="none" fill="hsla(272, 99%, 54%, 1.00)" rx="3.3421052631578947" transform="rotate(45, 466.66666666666674, 466.66666666666674)"></rect><rect width="6.684210526315789" height="33.333333333333336" x="463.3245614035088" y="450.00000000000006" stroke="none" fill="hsla(272, 99%, 54%, 1.00)" rx="3.3421052631578947" transform="rotate(45, 466.66666666666674, 466.66666666666674)"></rect><rect width="33.333333333333336" height="6.684210526315789" x="516.6666666666667" y="463.3245614035088" stroke="none" fill="hsla(55, 94%, 54%, 1.00)" rx="3.3421052631578947" transform="rotate(45, 533.3333333333334, 466.66666666666674)"></rect><rect width="6.684210526315789" height="33.333333333333336" x="529.9912280701755" y="450.00000000000006" stroke="none" fill="hsla(55, 94%, 54%, 1.00)" rx="3.3421052631578947" transform="rotate(45, 533.3333333333334, 466.66666666666674)"></rect><rect width="33.333333333333336" height="6.684210526315789" x="583.3333333333334" y="463.3245614035088" stroke="none" fill="hsla(272, 99%, 54%, 1.00)" rx="3.3421052631578947" transform="rotate(45, 600, 466.66666666666674)"></rect><rect width="6.684210526315789" height="33.333333333333336" x="596.6578947368421" y="450.00000000000006" stroke="none" fill="hsla(272, 99%, 54%, 1.00)" rx="3.3421052631578947" transform="rotate(45, 600, 466.66666666666674)"></rect><rect width="33.333333333333336" height="6.684210526315789" x="650" y="463.3245614035088" stroke="none" fill="hsla(55, 94%, 54%, 1.00)" rx="3.3421052631578947" transform="rotate(45, 666.6666666666666, 466.66666666666674)"></rect><rect width="6.684210526315789" height="33.333333333333336" x="663.3245614035087" y="450.00000000000006" stroke="none" fill="hsla(55, 94%, 54%, 1.00)" rx="3.3421052631578947" transform="rotate(45, 666.6666666666666, 466.66666666666674)"></rect><rect width="33.333333333333336" height="6.684210526315789" x="716.6666666666666" y="463.3245614035088" stroke="none" fill="hsla(272, 99%, 54%, 1.00)" rx="3.3421052631578947" transform="rotate(45, 733.3333333333333, 466.66666666666674)"></rect><rect width="6.684210526315789" height="33.333333333333336" x="729.9912280701753" y="450.00000000000006" stroke="none" fill="hsla(272, 99%, 54%, 1.00)" rx="3.3421052631578947" transform="rotate(45, 733.3333333333333, 466.66666666666674)"></rect><rect width="33.333333333333336" height="6.684210526315789" x="783.3333333333333" y="463.3245614035088" stroke="none" fill="hsla(55, 94%, 54%, 1.00)" rx="3.3421052631578947" transform="rotate(45, 799.9999999999999, 466.66666666666674)"></rect><rect width="6.684210526315789" height="33.333333333333336" x="796.657894736842" y="450.00000000000006" stroke="none" fill="hsla(55, 94%, 54%, 1.00)" rx="3.3421052631578947" transform="rotate(45, 799.9999999999999, 466.66666666666674)"></rect><rect width="33.333333333333336" height="6.684210526315789" x="-16.666666666666668" y="529.9912280701755" stroke="none" fill="hsla(272, 99%, 54%, 1.00)" rx="3.3421052631578947" transform="rotate(45, 0, 533.3333333333334)"></rect><rect width="6.684210526315789" height="33.333333333333336" x="-3.3421052631578947" y="516.6666666666667" stroke="none" fill="hsla(272, 99%, 54%, 1.00)" rx="3.3421052631578947" transform="rotate(45, 0, 533.3333333333334)"></rect><rect width="33.333333333333336" height="6.684210526315789" x="50" y="529.9912280701755" stroke="none" fill="hsla(55, 94%, 54%, 1.00)" rx="3.3421052631578947" transform="rotate(45, 66.66666666666667, 533.3333333333334)"></rect><rect width="6.684210526315789" height="33.333333333333336" x="63.324561403508774" y="516.6666666666667" stroke="none" fill="hsla(55, 94%, 54%, 1.00)" rx="3.3421052631578947" transform="rotate(45, 66.66666666666667, 533.3333333333334)"></rect><rect width="33.333333333333336" height="6.684210526315789" x="116.66666666666667" y="529.9912280701755" stroke="none" fill="hsla(272, 99%, 54%, 1.00)" rx="3.3421052631578947" transform="rotate(45, 133.33333333333334, 533.3333333333334)"></rect><rect width="6.684210526315789" height="33.333333333333336" x="129.99122807017545" y="516.6666666666667" stroke="none" fill="hsla(272, 99%, 54%, 1.00)" rx="3.3421052631578947" transform="rotate(45, 133.33333333333334, 533.3333333333334)"></rect><rect width="33.333333333333336" height="6.684210526315789" x="183.33333333333334" y="529.9912280701755" stroke="none" fill="hsla(55, 94%, 54%, 1.00)" rx="3.3421052631578947" transform="rotate(45, 200, 533.3333333333334)"></rect><rect width="6.684210526315789" height="33.333333333333336" x="196.6578947368421" y="516.6666666666667" stroke="none" fill="hsla(55, 94%, 54%, 1.00)" rx="3.3421052631578947" transform="rotate(45, 200, 533.3333333333334)"></rect><rect width="33.333333333333336" height="6.684210526315789" x="250.00000000000003" y="529.9912280701755" stroke="none" fill="hsla(272, 99%, 54%, 1.00)" rx="3.3421052631578947" transform="rotate(45, 266.6666666666667, 533.3333333333334)"></rect><rect width="6.684210526315789" height="33.333333333333336" x="263.32456140350877" y="516.6666666666667" stroke="none" fill="hsla(272, 99%, 54%, 1.00)" rx="3.3421052631578947" transform="rotate(45, 266.6666666666667, 533.3333333333334)"></rect><rect width="33.333333333333336" height="6.684210526315789" x="316.6666666666667" y="529.9912280701755" stroke="none" fill="hsla(55, 94%, 54%, 1.00)" rx="3.3421052631578947" transform="rotate(45, 333.33333333333337, 533.3333333333334)"></rect><rect width="6.684210526315789" height="33.333333333333336" x="329.99122807017545" y="516.6666666666667" stroke="none" fill="hsla(55, 94%, 54%, 1.00)" rx="3.3421052631578947" transform="rotate(45, 333.33333333333337, 533.3333333333334)"></rect><rect width="33.333333333333336" height="6.684210526315789" x="383.33333333333337" y="529.9912280701755" stroke="none" fill="hsla(272, 99%, 54%, 1.00)" rx="3.3421052631578947" transform="rotate(45, 400.00000000000006, 533.3333333333334)"></rect><rect width="6.684210526315789" height="33.333333333333336" x="396.65789473684214" y="516.6666666666667" stroke="none" fill="hsla(272, 99%, 54%, 1.00)" rx="3.3421052631578947" transform="rotate(45, 400.00000000000006, 533.3333333333334)"></rect><rect width="33.333333333333336" height="6.684210526315789" x="450.00000000000006" y="529.9912280701755" stroke="none" fill="hsla(55, 94%, 54%, 1.00)" rx="3.3421052631578947" transform="rotate(45, 466.66666666666674, 533.3333333333334)"></rect><rect width="6.684210526315789" height="33.333333333333336" x="463.3245614035088" y="516.6666666666667" stroke="none" fill="hsla(55, 94%, 54%, 1.00)" rx="3.3421052631578947" transform="rotate(45, 466.66666666666674, 533.3333333333334)"></rect><rect width="33.333333333333336" height="6.684210526315789" x="516.6666666666667" y="529.9912280701755" stroke="none" fill="hsla(272, 99%, 54%, 1.00)" rx="3.3421052631578947" transform="rotate(45, 533.3333333333334, 533.3333333333334)"></rect><rect width="6.684210526315789" height="33.333333333333336" x="529.9912280701755" y="516.6666666666667" stroke="none" fill="hsla(272, 99%, 54%, 1.00)" rx="3.3421052631578947" transform="rotate(45, 533.3333333333334, 533.3333333333334)"></rect><rect width="33.333333333333336" height="6.684210526315789" x="583.3333333333334" y="529.9912280701755" stroke="none" fill="hsla(55, 94%, 54%, 1.00)" rx="3.3421052631578947" transform="rotate(45, 600, 533.3333333333334)"></rect><rect width="6.684210526315789" height="33.333333333333336" x="596.6578947368421" y="516.6666666666667" stroke="none" fill="hsla(55, 94%, 54%, 1.00)" rx="3.3421052631578947" transform="rotate(45, 600, 533.3333333333334)"></rect><rect width="33.333333333333336" height="6.684210526315789" x="650" y="529.9912280701755" stroke="none" fill="hsla(272, 99%, 54%, 1.00)" rx="3.3421052631578947" transform="rotate(45, 666.6666666666666, 533.3333333333334)"></rect><rect width="6.684210526315789" height="33.333333333333336" x="663.3245614035087" y="516.6666666666667" stroke="none" fill="hsla(272, 99%, 54%, 1.00)" rx="3.3421052631578947" transform="rotate(45, 666.6666666666666, 533.3333333333334)"></rect><rect width="33.333333333333336" height="6.684210526315789" x="716.6666666666666" y="529.9912280701755" stroke="none" fill="hsla(55, 94%, 54%, 1.00)" rx="3.3421052631578947" transform="rotate(45, 733.3333333333333, 533.3333333333334)"></rect><rect width="6.684210526315789" height="33.333333333333336" x="729.9912280701753" y="516.6666666666667" stroke="none" fill="hsla(55, 94%, 54%, 1.00)" rx="3.3421052631578947" transform="rotate(45, 733.3333333333333, 533.3333333333334)"></rect><rect width="33.333333333333336" height="6.684210526315789" x="783.3333333333333" y="529.9912280701755" stroke="none" fill="hsla(272, 99%, 54%, 1.00)" rx="3.3421052631578947" transform="rotate(45, 799.9999999999999, 533.3333333333334)"></rect><rect width="6.684210526315789" height="33.333333333333336" x="796.657894736842" y="516.6666666666667" stroke="none" fill="hsla(272, 99%, 54%, 1.00)" rx="3.3421052631578947" transform="rotate(45, 799.9999999999999, 533.3333333333334)"></rect><rect width="33.333333333333336" height="6.684210526315789" x="-16.666666666666668" y="596.6578947368421" stroke="none" fill="hsla(55, 94%, 54%, 1.00)" rx="3.3421052631578947" transform="rotate(45, 0, 600)"></rect><rect width="6.684210526315789" height="33.333333333333336" x="-3.3421052631578947" y="583.3333333333334" stroke="none" fill="hsla(55, 94%, 54%, 1.00)" rx="3.3421052631578947" transform="rotate(45, 0, 600)"></rect><rect width="33.333333333333336" height="6.684210526315789" x="50" y="596.6578947368421" stroke="none" fill="hsla(272, 99%, 54%, 1.00)" rx="3.3421052631578947" transform="rotate(45, 66.66666666666667, 600)"></rect><rect width="6.684210526315789" height="33.333333333333336" x="63.324561403508774" y="583.3333333333334" stroke="none" fill="hsla(272, 99%, 54%, 1.00)" rx="3.3421052631578947" transform="rotate(45, 66.66666666666667, 600)"></rect><rect width="33.333333333333336" height="6.684210526315789" x="116.66666666666667" y="596.6578947368421" stroke="none" fill="hsla(55, 94%, 54%, 1.00)" rx="3.3421052631578947" transform="rotate(45, 133.33333333333334, 600)"></rect><rect width="6.684210526315789" height="33.333333333333336" x="129.99122807017545" y="583.3333333333334" stroke="none" fill="hsla(55, 94%, 54%, 1.00)" rx="3.3421052631578947" transform="rotate(45, 133.33333333333334, 600)"></rect><rect width="33.333333333333336" height="6.684210526315789" x="183.33333333333334" y="596.6578947368421" stroke="none" fill="hsla(272, 99%, 54%, 1.00)" rx="3.3421052631578947" transform="rotate(45, 200, 600)"></rect><rect width="6.684210526315789" height="33.333333333333336" x="196.6578947368421" y="583.3333333333334" stroke="none" fill="hsla(272, 99%, 54%, 1.00)" rx="3.3421052631578947" transform="rotate(45, 200, 600)"></rect><rect width="33.333333333333336" height="6.684210526315789" x="250.00000000000003" y="596.6578947368421" stroke="none" fill="hsla(55, 94%, 54%, 1.00)" rx="3.3421052631578947" transform="rotate(45, 266.6666666666667, 600)"></rect><rect width="6.684210526315789" height="33.333333333333336" x="263.32456140350877" y="583.3333333333334" stroke="none" fill="hsla(55, 94%, 54%, 1.00)" rx="3.3421052631578947" transform="rotate(45, 266.6666666666667, 600)"></rect><rect width="33.333333333333336" height="6.684210526315789" x="316.6666666666667" y="596.6578947368421" stroke="none" fill="hsla(272, 99%, 54%, 1.00)" rx="3.3421052631578947" transform="rotate(45, 333.33333333333337, 600)"></rect><rect width="6.684210526315789" height="33.333333333333336" x="329.99122807017545" y="583.3333333333334" stroke="none" fill="hsla(272, 99%, 54%, 1.00)" rx="3.3421052631578947" transform="rotate(45, 333.33333333333337, 600)"></rect><rect width="33.333333333333336" height="6.684210526315789" x="383.33333333333337" y="596.6578947368421" stroke="none" fill="hsla(55, 94%, 54%, 1.00)" rx="3.3421052631578947" transform="rotate(45, 400.00000000000006, 600)"></rect><rect width="6.684210526315789" height="33.333333333333336" x="396.65789473684214" y="583.3333333333334" stroke="none" fill="hsla(55, 94%, 54%, 1.00)" rx="3.3421052631578947" transform="rotate(45, 400.00000000000006, 600)"></rect><rect width="33.333333333333336" height="6.684210526315789" x="450.00000000000006" y="596.6578947368421" stroke="none" fill="hsla(272, 99%, 54%, 1.00)" rx="3.3421052631578947" transform="rotate(45, 466.66666666666674, 600)"></rect><rect width="6.684210526315789" height="33.333333333333336" x="463.3245614035088" y="583.3333333333334" stroke="none" fill="hsla(272, 99%, 54%, 1.00)" rx="3.3421052631578947" transform="rotate(45, 466.66666666666674, 600)"></rect><rect width="33.333333333333336" height="6.684210526315789" x="516.6666666666667" y="596.6578947368421" stroke="none" fill="hsla(55, 94%, 54%, 1.00)" rx="3.3421052631578947" transform="rotate(45, 533.3333333333334, 600)"></rect><rect width="6.684210526315789" height="33.333333333333336" x="529.9912280701755" y="583.3333333333334" stroke="none" fill="hsla(55, 94%, 54%, 1.00)" rx="3.3421052631578947" transform="rotate(45, 533.3333333333334, 600)"></rect><rect width="33.333333333333336" height="6.684210526315789" x="583.3333333333334" y="596.6578947368421" stroke="none" fill="hsla(272, 99%, 54%, 1.00)" rx="3.3421052631578947" transform="rotate(45, 600, 600)"></rect><rect width="6.684210526315789" height="33.333333333333336" x="596.6578947368421" y="583.3333333333334" stroke="none" fill="hsla(272, 99%, 54%, 1.00)" rx="3.3421052631578947" transform="rotate(45, 600, 600)"></rect><rect width="33.333333333333336" height="6.684210526315789" x="650" y="596.6578947368421" stroke="none" fill="hsla(55, 94%, 54%, 1.00)" rx="3.3421052631578947" transform="rotate(45, 666.6666666666666, 600)"></rect><rect width="6.684210526315789" height="33.333333333333336" x="663.3245614035087" y="583.3333333333334" stroke="none" fill="hsla(55, 94%, 54%, 1.00)" rx="3.3421052631578947" transform="rotate(45, 666.6666666666666, 600)"></rect><rect width="33.333333333333336" height="6.684210526315789" x="716.6666666666666" y="596.6578947368421" stroke="none" fill="hsla(272, 99%, 54%, 1.00)" rx="3.3421052631578947" transform="rotate(45, 733.3333333333333, 600)"></rect><rect width="6.684210526315789" height="33.333333333333336" x="729.9912280701753" y="583.3333333333334" stroke="none" fill="hsla(272, 99%, 54%, 1.00)" rx="3.3421052631578947" transform="rotate(45, 733.3333333333333, 600)"></rect><rect width="33.333333333333336" height="6.684210526315789" x="783.3333333333333" y="596.6578947368421" stroke="none" fill="hsla(55, 94%, 54%, 1.00)" rx="3.3421052631578947" transform="rotate(45, 799.9999999999999, 600)"></rect><rect width="6.684210526315789" height="33.333333333333336" x="796.657894736842" y="583.3333333333334" stroke="none" fill="hsla(55, 94%, 54%, 1.00)" rx="3.3421052631578947" transform="rotate(45, 799.9999999999999, 600)"></rect><rect width="33.333333333333336" height="6.684210526315789" x="-16.666666666666668" y="663.3245614035087" stroke="none" fill="hsla(272, 99%, 54%, 1.00)" rx="3.3421052631578947" transform="rotate(45, 0, 666.6666666666666)"></rect><rect width="6.684210526315789" height="33.333333333333336" x="-3.3421052631578947" y="650" stroke="none" fill="hsla(272, 99%, 54%, 1.00)" rx="3.3421052631578947" transform="rotate(45, 0, 666.6666666666666)"></rect><rect width="33.333333333333336" height="6.684210526315789" x="50" y="663.3245614035087" stroke="none" fill="hsla(55, 94%, 54%, 1.00)" rx="3.3421052631578947" transform="rotate(45, 66.66666666666667, 666.6666666666666)"></rect><rect width="6.684210526315789" height="33.333333333333336" x="63.324561403508774" y="650" stroke="none" fill="hsla(55, 94%, 54%, 1.00)" rx="3.3421052631578947" transform="rotate(45, 66.66666666666667, 666.6666666666666)"></rect><rect width="33.333333333333336" height="6.684210526315789" x="116.66666666666667" y="663.3245614035087" stroke="none" fill="hsla(272, 99%, 54%, 1.00)" rx="3.3421052631578947" transform="rotate(45, 133.33333333333334, 666.6666666666666)"></rect><rect width="6.684210526315789" height="33.333333333333336" x="129.99122807017545" y="650" stroke="none" fill="hsla(272, 99%, 54%, 1.00)" rx="3.3421052631578947" transform="rotate(45, 133.33333333333334, 666.6666666666666)"></rect><rect width="33.333333333333336" height="6.684210526315789" x="183.33333333333334" y="663.3245614035087" stroke="none" fill="hsla(55, 94%, 54%, 1.00)" rx="3.3421052631578947" transform="rotate(45, 200, 666.6666666666666)"></rect><rect width="6.684210526315789" height="33.333333333333336" x="196.6578947368421" y="650" stroke="none" fill="hsla(55, 94%, 54%, 1.00)" rx="3.3421052631578947" transform="rotate(45, 200, 666.6666666666666)"></rect><rect width="33.333333333333336" height="6.684210526315789" x="250.00000000000003" y="663.3245614035087" stroke="none" fill="hsla(272, 99%, 54%, 1.00)" rx="3.3421052631578947" transform="rotate(45, 266.6666666666667, 666.6666666666666)"></rect><rect width="6.684210526315789" height="33.333333333333336" x="263.32456140350877" y="650" stroke="none" fill="hsla(272, 99%, 54%, 1.00)" rx="3.3421052631578947" transform="rotate(45, 266.6666666666667, 666.6666666666666)"></rect><rect width="33.333333333333336" height="6.684210526315789" x="316.6666666666667" y="663.3245614035087" stroke="none" fill="hsla(55, 94%, 54%, 1.00)" rx="3.3421052631578947" transform="rotate(45, 333.33333333333337, 666.6666666666666)"></rect><rect width="6.684210526315789" height="33.333333333333336" x="329.99122807017545" y="650" stroke="none" fill="hsla(55, 94%, 54%, 1.00)" rx="3.3421052631578947" transform="rotate(45, 333.33333333333337, 666.6666666666666)"></rect><rect width="33.333333333333336" height="6.684210526315789" x="383.33333333333337" y="663.3245614035087" stroke="none" fill="hsla(272, 99%, 54%, 1.00)" rx="3.3421052631578947" transform="rotate(45, 400.00000000000006, 666.6666666666666)"></rect><rect width="6.684210526315789" height="33.333333333333336" x="396.65789473684214" y="650" stroke="none" fill="hsla(272, 99%, 54%, 1.00)" rx="3.3421052631578947" transform="rotate(45, 400.00000000000006, 666.6666666666666)"></rect><rect width="33.333333333333336" height="6.684210526315789" x="450.00000000000006" y="663.3245614035087" stroke="none" fill="hsla(55, 94%, 54%, 1.00)" rx="3.3421052631578947" transform="rotate(45, 466.66666666666674, 666.6666666666666)"></rect><rect width="6.684210526315789" height="33.333333333333336" x="463.3245614035088" y="650" stroke="none" fill="hsla(55, 94%, 54%, 1.00)" rx="3.3421052631578947" transform="rotate(45, 466.66666666666674, 666.6666666666666)"></rect><rect width="33.333333333333336" height="6.684210526315789" x="516.6666666666667" y="663.3245614035087" stroke="none" fill="hsla(272, 99%, 54%, 1.00)" rx="3.3421052631578947" transform="rotate(45, 533.3333333333334, 666.6666666666666)"></rect><rect width="6.684210526315789" height="33.333333333333336" x="529.9912280701755" y="650" stroke="none" fill="hsla(272, 99%, 54%, 1.00)" rx="3.3421052631578947" transform="rotate(45, 533.3333333333334, 666.6666666666666)"></rect><rect width="33.333333333333336" height="6.684210526315789" x="583.3333333333334" y="663.3245614035087" stroke="none" fill="hsla(55, 94%, 54%, 1.00)" rx="3.3421052631578947" transform="rotate(45, 600, 666.6666666666666)"></rect><rect width="6.684210526315789" height="33.333333333333336" x="596.6578947368421" y="650" stroke="none" fill="hsla(55, 94%, 54%, 1.00)" rx="3.3421052631578947" transform="rotate(45, 600, 666.6666666666666)"></rect><rect width="33.333333333333336" height="6.684210526315789" x="650" y="663.3245614035087" stroke="none" fill="hsla(272, 99%, 54%, 1.00)" rx="3.3421052631578947" transform="rotate(45, 666.6666666666666, 666.6666666666666)"></rect><rect width="6.684210526315789" height="33.333333333333336" x="663.3245614035087" y="650" stroke="none" fill="hsla(272, 99%, 54%, 1.00)" rx="3.3421052631578947" transform="rotate(45, 666.6666666666666, 666.6666666666666)"></rect><rect width="33.333333333333336" height="6.684210526315789" x="716.6666666666666" y="663.3245614035087" stroke="none" fill="hsla(55, 94%, 54%, 1.00)" rx="3.3421052631578947" transform="rotate(45, 733.3333333333333, 666.6666666666666)"></rect><rect width="6.684210526315789" height="33.333333333333336" x="729.9912280701753" y="650" stroke="none" fill="hsla(55, 94%, 54%, 1.00)" rx="3.3421052631578947" transform="rotate(45, 733.3333333333333, 666.6666666666666)"></rect><rect width="33.333333333333336" height="6.684210526315789" x="783.3333333333333" y="663.3245614035087" stroke="none" fill="hsla(272, 99%, 54%, 1.00)" rx="3.3421052631578947" transform="rotate(45, 799.9999999999999, 666.6666666666666)"></rect><rect width="6.684210526315789" height="33.333333333333336" x="796.657894736842" y="650" stroke="none" fill="hsla(272, 99%, 54%, 1.00)" rx="3.3421052631578947" transform="rotate(45, 799.9999999999999, 666.6666666666666)"></rect><rect width="33.333333333333336" height="6.684210526315789" x="-16.666666666666668" y="729.9912280701753" stroke="none" fill="hsla(55, 94%, 54%, 1.00)" rx="3.3421052631578947" transform="rotate(45, 0, 733.3333333333333)"></rect><rect width="6.684210526315789" height="33.333333333333336" x="-3.3421052631578947" y="716.6666666666666" stroke="none" fill="hsla(55, 94%, 54%, 1.00)" rx="3.3421052631578947" transform="rotate(45, 0, 733.3333333333333)"></rect><rect width="33.333333333333336" height="6.684210526315789" x="50" y="729.9912280701753" stroke="none" fill="hsla(272, 99%, 54%, 1.00)" rx="3.3421052631578947" transform="rotate(45, 66.66666666666667, 733.3333333333333)"></rect><rect width="6.684210526315789" height="33.333333333333336" x="63.324561403508774" y="716.6666666666666" stroke="none" fill="hsla(272, 99%, 54%, 1.00)" rx="3.3421052631578947" transform="rotate(45, 66.66666666666667, 733.3333333333333)"></rect><rect width="33.333333333333336" height="6.684210526315789" x="116.66666666666667" y="729.9912280701753" stroke="none" fill="hsla(55, 94%, 54%, 1.00)" rx="3.3421052631578947" transform="rotate(45, 133.33333333333334, 733.3333333333333)"></rect><rect width="6.684210526315789" height="33.333333333333336" x="129.99122807017545" y="716.6666666666666" stroke="none" fill="hsla(55, 94%, 54%, 1.00)" rx="3.3421052631578947" transform="rotate(45, 133.33333333333334, 733.3333333333333)"></rect><rect width="33.333333333333336" height="6.684210526315789" x="183.33333333333334" y="729.9912280701753" stroke="none" fill="hsla(272, 99%, 54%, 1.00)" rx="3.3421052631578947" transform="rotate(45, 200, 733.3333333333333)"></rect><rect width="6.684210526315789" height="33.333333333333336" x="196.6578947368421" y="716.6666666666666" stroke="none" fill="hsla(272, 99%, 54%, 1.00)" rx="3.3421052631578947" transform="rotate(45, 200, 733.3333333333333)"></rect><rect width="33.333333333333336" height="6.684210526315789" x="250.00000000000003" y="729.9912280701753" stroke="none" fill="hsla(55, 94%, 54%, 1.00)" rx="3.3421052631578947" transform="rotate(45, 266.6666666666667, 733.3333333333333)"></rect><rect width="6.684210526315789" height="33.333333333333336" x="263.32456140350877" y="716.6666666666666" stroke="none" fill="hsla(55, 94%, 54%, 1.00)" rx="3.3421052631578947" transform="rotate(45, 266.6666666666667, 733.3333333333333)"></rect><rect width="33.333333333333336" height="6.684210526315789" x="316.6666666666667" y="729.9912280701753" stroke="none" fill="hsla(272, 99%, 54%, 1.00)" rx="3.3421052631578947" transform="rotate(45, 333.33333333333337, 733.3333333333333)"></rect><rect width="6.684210526315789" height="33.333333333333336" x="329.99122807017545" y="716.6666666666666" stroke="none" fill="hsla(272, 99%, 54%, 1.00)" rx="3.3421052631578947" transform="rotate(45, 333.33333333333337, 733.3333333333333)"></rect><rect width="33.333333333333336" height="6.684210526315789" x="383.33333333333337" y="729.9912280701753" stroke="none" fill="hsla(55, 94%, 54%, 1.00)" rx="3.3421052631578947" transform="rotate(45, 400.00000000000006, 733.3333333333333)"></rect><rect width="6.684210526315789" height="33.333333333333336" x="396.65789473684214" y="716.6666666666666" stroke="none" fill="hsla(55, 94%, 54%, 1.00)" rx="3.3421052631578947" transform="rotate(45, 400.00000000000006, 733.3333333333333)"></rect><rect width="33.333333333333336" height="6.684210526315789" x="450.00000000000006" y="729.9912280701753" stroke="none" fill="hsla(272, 99%, 54%, 1.00)" rx="3.3421052631578947" transform="rotate(45, 466.66666666666674, 733.3333333333333)"></rect><rect width="6.684210526315789" height="33.333333333333336" x="463.3245614035088" y="716.6666666666666" stroke="none" fill="hsla(272, 99%, 54%, 1.00)" rx="3.3421052631578947" transform="rotate(45, 466.66666666666674, 733.3333333333333)"></rect><rect width="33.333333333333336" height="6.684210526315789" x="516.6666666666667" y="729.9912280701753" stroke="none" fill="hsla(55, 94%, 54%, 1.00)" rx="3.3421052631578947" transform="rotate(45, 533.3333333333334, 733.3333333333333)"></rect><rect width="6.684210526315789" height="33.333333333333336" x="529.9912280701755" y="716.6666666666666" stroke="none" fill="hsla(55, 94%, 54%, 1.00)" rx="3.3421052631578947" transform="rotate(45, 533.3333333333334, 733.3333333333333)"></rect><rect width="33.333333333333336" height="6.684210526315789" x="583.3333333333334" y="729.9912280701753" stroke="none" fill="hsla(272, 99%, 54%, 1.00)" rx="3.3421052631578947" transform="rotate(45, 600, 733.3333333333333)"></rect><rect width="6.684210526315789" height="33.333333333333336" x="596.6578947368421" y="716.6666666666666" stroke="none" fill="hsla(272, 99%, 54%, 1.00)" rx="3.3421052631578947" transform="rotate(45, 600, 733.3333333333333)"></rect><rect width="33.333333333333336" height="6.684210526315789" x="650" y="729.9912280701753" stroke="none" fill="hsla(55, 94%, 54%, 1.00)" rx="3.3421052631578947" transform="rotate(45, 666.6666666666666, 733.3333333333333)"></rect><rect width="6.684210526315789" height="33.333333333333336" x="663.3245614035087" y="716.6666666666666" stroke="none" fill="hsla(55, 94%, 54%, 1.00)" rx="3.3421052631578947" transform="rotate(45, 666.6666666666666, 733.3333333333333)"></rect><rect width="33.333333333333336" height="6.684210526315789" x="716.6666666666666" y="729.9912280701753" stroke="none" fill="hsla(272, 99%, 54%, 1.00)" rx="3.3421052631578947" transform="rotate(45, 733.3333333333333, 733.3333333333333)"></rect><rect width="6.684210526315789" height="33.333333333333336" x="729.9912280701753" y="716.6666666666666" stroke="none" fill="hsla(272, 99%, 54%, 1.00)" rx="3.3421052631578947" transform="rotate(45, 733.3333333333333, 733.3333333333333)"></rect><rect width="33.333333333333336" height="6.684210526315789" x="783.3333333333333" y="729.9912280701753" stroke="none" fill="hsla(55, 94%, 54%, 1.00)" rx="3.3421052631578947" transform="rotate(45, 799.9999999999999, 733.3333333333333)"></rect><rect width="6.684210526315789" height="33.333333333333336" x="796.657894736842" y="716.6666666666666" stroke="none" fill="hsla(55, 94%, 54%, 1.00)" rx="3.3421052631578947" transform="rotate(45, 799.9999999999999, 733.3333333333333)"></rect><rect width="33.333333333333336" height="6.684210526315789" x="-16.666666666666668" y="796.657894736842" stroke="none" fill="hsla(272, 99%, 54%, 1.00)" rx="3.3421052631578947" transform="rotate(45, 0, 799.9999999999999)"></rect><rect width="6.684210526315789" height="33.333333333333336" x="-3.3421052631578947" y="783.3333333333333" stroke="none" fill="hsla(272, 99%, 54%, 1.00)" rx="3.3421052631578947" transform="rotate(45, 0, 799.9999999999999)"></rect><rect width="33.333333333333336" height="6.684210526315789" x="50" y="796.657894736842" stroke="none" fill="hsla(55, 94%, 54%, 1.00)" rx="3.3421052631578947" transform="rotate(45, 66.66666666666667, 799.9999999999999)"></rect><rect width="6.684210526315789" height="33.333333333333336" x="63.324561403508774" y="783.3333333333333" stroke="none" fill="hsla(55, 94%, 54%, 1.00)" rx="3.3421052631578947" transform="rotate(45, 66.66666666666667, 799.9999999999999)"></rect><rect width="33.333333333333336" height="6.684210526315789" x="116.66666666666667" y="796.657894736842" stroke="none" fill="hsla(272, 99%, 54%, 1.00)" rx="3.3421052631578947" transform="rotate(45, 133.33333333333334, 799.9999999999999)"></rect><rect width="6.684210526315789" height="33.333333333333336" x="129.99122807017545" y="783.3333333333333" stroke="none" fill="hsla(272, 99%, 54%, 1.00)" rx="3.3421052631578947" transform="rotate(45, 133.33333333333334, 799.9999999999999)"></rect><rect width="33.333333333333336" height="6.684210526315789" x="183.33333333333334" y="796.657894736842" stroke="none" fill="hsla(55, 94%, 54%, 1.00)" rx="3.3421052631578947" transform="rotate(45, 200, 799.9999999999999)"></rect><rect width="6.684210526315789" height="33.333333333333336" x="196.6578947368421" y="783.3333333333333" stroke="none" fill="hsla(55, 94%, 54%, 1.00)" rx="3.3421052631578947" transform="rotate(45, 200, 799.9999999999999)"></rect><rect width="33.333333333333336" height="6.684210526315789" x="250.00000000000003" y="796.657894736842" stroke="none" fill="hsla(272, 99%, 54%, 1.00)" rx="3.3421052631578947" transform="rotate(45, 266.6666666666667, 799.9999999999999)"></rect><rect width="6.684210526315789" height="33.333333333333336" x="263.32456140350877" y="783.3333333333333" stroke="none" fill="hsla(272, 99%, 54%, 1.00)" rx="3.3421052631578947" transform="rotate(45, 266.6666666666667, 799.9999999999999)"></rect><rect width="33.333333333333336" height="6.684210526315789" x="316.6666666666667" y="796.657894736842" stroke="none" fill="hsla(55, 94%, 54%, 1.00)" rx="3.3421052631578947" transform="rotate(45, 333.33333333333337, 799.9999999999999)"></rect><rect width="6.684210526315789" height="33.333333333333336" x="329.99122807017545" y="783.3333333333333" stroke="none" fill="hsla(55, 94%, 54%, 1.00)" rx="3.3421052631578947" transform="rotate(45, 333.33333333333337, 799.9999999999999)"></rect><rect width="33.333333333333336" height="6.684210526315789" x="383.33333333333337" y="796.657894736842" stroke="none" fill="hsla(272, 99%, 54%, 1.00)" rx="3.3421052631578947" transform="rotate(45, 400.00000000000006, 799.9999999999999)"></rect><rect width="6.684210526315789" height="33.333333333333336" x="396.65789473684214" y="783.3333333333333" stroke="none" fill="hsla(272, 99%, 54%, 1.00)" rx="3.3421052631578947" transform="rotate(45, 400.00000000000006, 799.9999999999999)"></rect><rect width="33.333333333333336" height="6.684210526315789" x="450.00000000000006" y="796.657894736842" stroke="none" fill="hsla(55, 94%, 54%, 1.00)" rx="3.3421052631578947" transform="rotate(45, 466.66666666666674, 799.9999999999999)"></rect><rect width="6.684210526315789" height="33.333333333333336" x="463.3245614035088" y="783.3333333333333" stroke="none" fill="hsla(55, 94%, 54%, 1.00)" rx="3.3421052631578947" transform="rotate(45, 466.66666666666674, 799.9999999999999)"></rect><rect width="33.333333333333336" height="6.684210526315789" x="516.6666666666667" y="796.657894736842" stroke="none" fill="hsla(272, 99%, 54%, 1.00)" rx="3.3421052631578947" transform="rotate(45, 533.3333333333334, 799.9999999999999)"></rect><rect width="6.684210526315789" height="33.333333333333336" x="529.9912280701755" y="783.3333333333333" stroke="none" fill="hsla(272, 99%, 54%, 1.00)" rx="3.3421052631578947" transform="rotate(45, 533.3333333333334, 799.9999999999999)"></rect><rect width="33.333333333333336" height="6.684210526315789" x="583.3333333333334" y="796.657894736842" stroke="none" fill="hsla(55, 94%, 54%, 1.00)" rx="3.3421052631578947" transform="rotate(45, 600, 799.9999999999999)"></rect><rect width="6.684210526315789" height="33.333333333333336" x="596.6578947368421" y="783.3333333333333" stroke="none" fill="hsla(55, 94%, 54%, 1.00)" rx="3.3421052631578947" transform="rotate(45, 600, 799.9999999999999)"></rect><rect width="33.333333333333336" height="6.684210526315789" x="650" y="796.657894736842" stroke="none" fill="hsla(272, 99%, 54%, 1.00)" rx="3.3421052631578947" transform="rotate(45, 666.6666666666666, 799.9999999999999)"></rect><rect width="6.684210526315789" height="33.333333333333336" x="663.3245614035087" y="783.3333333333333" stroke="none" fill="hsla(272, 99%, 54%, 1.00)" rx="3.3421052631578947" transform="rotate(45, 666.6666666666666, 799.9999999999999)"></rect><rect width="33.333333333333336" height="6.684210526315789" x="716.6666666666666" y="796.657894736842" stroke="none" fill="hsla(55, 94%, 54%, 1.00)" rx="3.3421052631578947" transform="rotate(45, 733.3333333333333, 799.9999999999999)"></rect><rect width="6.684210526315789" height="33.333333333333336" x="729.9912280701753" y="783.3333333333333" stroke="none" fill="hsla(55, 94%, 54%, 1.00)" rx="3.3421052631578947" transform="rotate(45, 733.3333333333333, 799.9999999999999)"></rect><rect width="33.333333333333336" height="6.684210526315789" x="783.3333333333333" y="796.657894736842" stroke="none" fill="hsla(272, 99%, 54%, 1.00)" rx="3.3421052631578947" transform="rotate(45, 799.9999999999999, 799.9999999999999)"></rect><rect width="6.684210526315789" height="33.333333333333336" x="796.657894736842" y="783.3333333333333" stroke="none" fill="hsla(272, 99%, 54%, 1.00)" rx="3.3421052631578947" transform="rotate(45, 799.9999999999999, 799.9999999999999)"></rect></g></svg>