<svg xmlns="http://www.w3.org/2000/svg" version="1.1" xmlns:xlink="http://www.w3.org/1999/xlink" xmlns:svgjs="http://svgjs.dev/svgjs" viewBox="0 0 800 800"><defs><linearGradient x1="50%" y1="0%" x2="50%" y2="100%" id="ssspill-grad"><stop stop-color="hsl(37, 99%, 67%)" stop-opacity="1" offset="45%"></stop><stop stop-color="hsl(316, 73%, 52%)" stop-opacity="1" offset="100%"></stop></linearGradient><filter id="ssspot-filter" x="-20%" y="-20%" width="140%" height="140%" filterUnits="objectBoundingBox" primitiveUnits="userSpaceOnUse" color-interpolation-filters="sRGB">
	<feTurbulence type="turbulence" baseFrequency="0.022 0.218" numOctaves="2" seed="179" stitchTiles="stitch" x="0%" y="0%" width="100%" height="100%" result="turbulence"></feTurbulence>
	<feGaussianBlur stdDeviation="0 3" x="0%" y="0%" width="100%" height="100%" in="turbulence" edgeMode="duplicate" result="blur"></feGaussianBlur>
	<feDisplacementMap in="SourceGraphic" in2="blur" scale="32" xChannelSelector="R" yChannelSelector="B" x="0%" y="0%" width="100%" height="100%" result="displacementMap"></feDisplacementMap>
</filter></defs><rect width="100%" height="100%" fill="hsl(32, 100%, 89%)"></rect><g fill="url(#ssspill-grad)" filter="url(#ssspot-filter)"><circle r="8.59407021374719" cx="719.2163904949184" cy="574.0323465076419" opacity="0.5617857874708305"></circle><circle r="4.912691073800378" cx="635.6603128522216" cy="278.6276393341236" opacity="0.2510530577180381"></circle><circle r="12.883660923934162" cx="114.19044068972366" cy="185.91172195226903" opacity="0.8138604024753738"></circle><circle r="15.723952939308312" cx="391.4218682305574" cy="43.147442037585954" opacity="0.352382022398844"></circle><circle r="9.640860240580688" cx="328.11555754748844" cy="234.74032777761818" opacity="0.9910389898511937"></circle><circle r="8.646112587116356" cx="205.86905925310498" cy="780.5341650084443" opacity="0.9803401524900721"></circle><circle r="5.30770790808392" cx="691.5046412468248" cy="352.64268122757704" opacity="0.13577317128889088"></circle><circle r="7.716953401113383" cx="162.35365736391842" cy="773.3576343685081" opacity="0.9000692820220322"></circle><circle r="10.336631802046949" cx="209.5764748173036" cy="264.91268115492846" opacity="0.37163464743431207"></circle><circle r="9.096861651478445" cx="116.58933367591969" cy="559.7430069998213" opacity="0.44870804348044646"></circle><circle r="9.67161780791832" cx="25.63736332331856" cy="225.69412127900668" opacity="0.3993751434499313"></circle><circle r="10.973054967894774" cx="352.7525682238694" cy="173.28176580038107" opacity="0.6475748254617325"></circle><circle r="9.78451257491044" cx="60.99948249510571" cy="182.75043925995544" opacity="0.1280609225937392"></circle><circle r="10.90521982019727" cx="721.0375806052301" cy="156.62409385898502" opacity="0.2499912203437505"></circle><circle r="7.96280220495518" cx="653.242136093209" cy="518.8085712609823" opacity="0.9277525815179591"></circle><circle r="4.953355170430135" cx="780.6156923023888" cy="623.937864852136" opacity="0.26723691320634146"></circle><circle r="9.738840103087231" cx="386.8919710988604" cy="578.7919855562238" opacity="0.7432957543915618"></circle><circle r="10.451384831349532" cx="229.065707374895" cy="499.76812703442124" opacity="0.8185398017247435"></circle><circle r="10.478645316719879" cx="484.5703091853925" cy="349.52002185575077" opacity="0.70754484991041"></circle><circle r="5.641747184836" cx="104.27613536316979" cy="750.6320738037542" opacity="0.27674229409166934"></circle><circle r="10.672487894207464" cx="667.0699990614341" cy="733.6176044712698" opacity="0.32415252261003913"></circle><circle r="11.263949484545439" cx="140.03760793933122" cy="72.79198628809596" opacity="0.4344562387115668"></circle><circle r="10.342329128533445" cx="501.4195322399268" cy="477.7571556864119" opacity="0.4083708517363911"></circle><circle r="11.03353243526658" cx="617.769625048859" cy="777.795537805215" opacity="0.34629563447911244"></circle><circle r="5.867297507435342" cx="37.02464591909469" cy="318.5064465274588" opacity="0.40251552196464624"></circle><circle r="6.832142286599326" cx="688.4761652313847" cy="194.02037774209856" opacity="0.356010094309554"></circle><circle r="7.494458920988535" cx="154.40331630367564" cy="493.9862778925" opacity="0.8626407933239154"></circle><circle r="6.920092717479866" cx="199.5258216245622" cy="531.0458429886526" opacity="0.1497737645981665"></circle><circle r="11.970382697765729" cx="404.73256736021557" cy="512.4115565601596" opacity="0.4003861137278072"></circle><circle r="8.400466204156931" cx="304.3952820754322" cy="713.9766567489218" opacity="0.36131702779540076"></circle><circle r="8.126966209218855" cx="674.9963847191949" cy="605.6784415954936" opacity="0.9396939022836382"></circle><circle r="11.569874941519394" cx="668.7072290250507" cy="119.14989195182197" opacity="0.3550380262690229"></circle><circle r="6.8602556014082285" cx="776.7499734935595" cy="482.87086680402547" opacity="0.7634013716819342"></circle><circle r="10.2857777364734" cx="285.61232219798785" cy="63.7400794029618" opacity="0.15149684780828954"></circle><circle r="6.14033626147597" cx="186.68923884525066" cy="663.988175748814" opacity="0.7786396406008096"></circle><circle r="5.554594252966529" cx="378.1115823713078" cy="257.263666758502" opacity="0.943233268457883"></circle><circle r="12.367254219492438" cx="362.5872003965563" cy="350.8458474972469" opacity="0.6595956829925743"></circle><circle r="9.957129548250421" cx="324.2290978728966" cy="389.71440744029803" opacity="0.4121325813257919"></circle><circle r="10.30008055791853" cx="779.3053651793573" cy="237.9154446047837" opacity="0.30738088182318024"></circle><circle r="12.292799992690101" cx="746.565918731083" cy="441.33175955542987" opacity="0.6379123903240155"></circle><circle r="10.685576801875028" cx="76.66279577040362" cy="103.53339258932284" opacity="0.797598957331519"></circle><circle r="7.651972400003462" cx="158.3691146290863" cy="313.78701476741634" opacity="0.85105597103119"></circle><circle r="4.26310706004928" cx="783.0367734621858" cy="713.6447558407353" opacity="0.30446136228557963"></circle><circle r="10.519694424210892" cx="27.661410483827503" cy="454.2683633090207" opacity="0.6797797357569165"></circle><circle r="4.75838586551734" cx="447.54358614214175" cy="687.7053751584277" opacity="0.336617854244246"></circle><circle r="6.596913199104673" cx="623.4618106922567" cy="395.76498356379113" opacity="0.8057057096935575"></circle><circle r="16.511914324531894" cx="95.2622438362823" cy="329.45542714190464" opacity="0.12576919936145672"></circle><circle r="11.001197805517535" cx="346.2811492373299" cy="490.5373518250421" opacity="0.6711778238950771"></circle><circle r="5.470466584253478" cx="217.8035034766524" cy="652.1588786527664" opacity="0.8670662454248871"></circle><circle r="13.597748859282365" cx="32.43512223996165" cy="684.8964289111552" opacity="0.8730289370300353"></circle><circle r="8.92494292773679" cx="721.3825269132292" cy="516.3870850072054" opacity="0.6153248706567277"></circle><circle r="6.18515915924192" cx="633.5483290510512" cy="487.86476366022333" opacity="0.4955439272053226"></circle><circle r="6.912971325391449" cx="310.24801006247134" cy="438.69608467665756" opacity="0.8367776983467973"></circle><circle r="7.582845699527407" cx="454.8100045637585" cy="250.33664370220708" opacity="0.9738925102487012"></circle><circle r="4.930080031596141" cx="250.18851968528938" cy="239.3821390201383" opacity="0.9274785712925124"></circle><circle r="7.3120440145259735" cx="266.8695005906096" cy="201.7702791223198" opacity="0.34764676755411317"></circle><circle r="11.960710678026212" cx="560.3719149618597" cy="362.8225418609866" opacity="0.8443440305822562"></circle><circle r="6.819051853146019" cx="488.04582272744557" cy="571.8250081228642" opacity="0.31329660734394627"></circle><circle r="8.004070663167585" cx="247.50670905004247" cy="624.1683447144305" opacity="0.5918652169588853"></circle><circle r="5.544858420810513" cx="464.6363756283408" cy="292.2013117758212" opacity="0.13944624544966921"></circle><circle r="13.702899948975222" cx="330.1390019844514" cy="97.29795425870553" opacity="0.11973485268012332"></circle><circle r="6.85322499864338" cx="361.1608719237488" cy="297.0528069970146" opacity="0.5137726213668289"></circle><circle r="15.807902887738202" cx="568.5262109352434" cy="506.85851356941794" opacity="0.89522828278732"></circle><circle r="6.521357941909804" cx="292.42717419751625" cy="340.44025654330756" opacity="0.4136520680218112"></circle><circle r="6.2275343715229585" cx="64.30570753922896" cy="37.908912377567724" opacity="0.8909959271339407"></circle><circle r="8.949250318209833" cx="83.4310832719917" cy="593.9204081150061" opacity="0.6053591443808662"></circle><circle r="12.285473210807194" cx="407.91519801566176" cy="710.278987866258" opacity="0.3987011483774876"></circle><circle r="11.795155816939825" cx="757.1272030488943" cy="334.7351944073515" opacity="0.668283394393804"></circle><circle r="8.924466691085172" cx="488.49098513984" cy="240.47770068799258" opacity="0.9025638697398235"></circle><circle r="6.566191321997694" cx="261.51924700943425" cy="559.1475846548875" opacity="0.549068098272163"></circle><circle r="6.954048775762846" cx="226.9096507546684" cy="573.8809587794148" opacity="0.6590868399932012"></circle><circle r="10.529698474193566" cx="305.39239721192786" cy="648.9583997269436" opacity="0.7994133960738686"></circle><circle r="5.892707936253033" cx="289.09744151733844" cy="491.4624685851263" opacity="0.736725509284623"></circle><circle r="11.331210362969596" cx="565.7493896794037" cy="760.7743615992692" opacity="0.4059894262288455"></circle><circle r="4.196619035386446" cx="101.95486416273928" cy="784.5983712621683" opacity="0.12854073784259562"></circle><circle r="7.723406098586784" cx="677.3563417553587" cy="239.3619628256497" opacity="0.21747025499334321"></circle><circle r="10.219351396212808" cx="484.44393670254556" cy="179.5505390511451" opacity="0.501485735121285"></circle><circle r="10.332428633473562" cx="262.8263588417107" cy="132.067628546073" opacity="0.34030754847663125"></circle><circle r="5.9350192386773495" cx="195.88407418697912" cy="378.5894680965012" opacity="0.6922261854274029"></circle><circle r="9.91920799894357" cx="134.95491394782033" cy="262.0072472141943" opacity="0.7041028822321728"></circle><circle r="5.814233859979347" cx="760.4795490942531" cy="536.8874626107379" opacity="0.44944999383759354"></circle><circle r="5.886557161328548" cx="208.0050224085037" cy="305.96454910689397" opacity="0.4219823201500362"></circle><circle r="7.3864484700781095" cx="776.1578775814437" cy="160.99922900149969" opacity="0.21435990452359094"></circle><circle r="6.662849713470474" cx="21.43407159616038" cy="513.3616064334291" opacity="0.828891577225224"></circle><circle r="7.0271755547490224" cx="727.7548687529628" cy="26.625940492749784" opacity="0.425637012478408"></circle><circle r="11.870086149532497" cx="23.070681057486027" cy="145.28143563953654" opacity="0.24840976536516682"></circle><circle r="5.29068113146628" cx="640.0774043578099" cy="559.4212908249457" opacity="0.8921424005944113"></circle><circle r="10.312205712903118" cx="201.99474766109336" cy="31.2082568790588" opacity="0.15234935807698263"></circle><circle r="8.938177694452763" cx="262.974495903275" cy="676.1240330461104" opacity="0.5385106153337268"></circle><circle r="6.5274921006780025" cx="193.9629438796401" cy="86.25247514618412" opacity="0.9836032987582135"></circle><circle r="7.018542395916522" cx="316.52624947520246" cy="782.4174704622196" opacity="0.5701329511297841"></circle><circle r="8.460135877776645" cx="544.4066114323924" cy="202.7214684545903" opacity="0.39175416975876953"></circle><circle r="9.84712576595119" cx="772.0319082649129" cy="663.6319026134804" opacity="0.39189058956755485"></circle><circle r="8.564010480539702" cx="227.39096135067302" cy="750.1946842389277" opacity="0.10737581847591826"></circle><circle r="10.400105034732425" cx="162.48111687214973" cy="704.4146749188002" opacity="0.5440111183831837"></circle><circle r="7.5644341350959685" cx="685.7922018808281" cy="541.1858301700119" opacity="0.1650794830150523"></circle><circle r="7.581862000399438" cx="487.8496501006729" cy="683.3678125176451" opacity="0.3246433154535101"></circle><circle r="8.268462274126922" cx="621.7056677464342" cy="153.98035854384193" opacity="0.12889996798023004"></circle><circle r="12.35466049566546" cx="20.706350869893306" cy="56.75725278005581" opacity="0.3029647773853576"></circle><circle r="12.624351220571072" cx="746.7448275004383" cy="95.01682079712478" opacity="0.32602858842859095"></circle><circle r="7.010322444695722" cx="226.84861164036272" cy="345.4595386838929" opacity="0.8669015914570632"></circle><circle r="9.331261188128536" cx="714.0126529776794" cy="274.04591564750064" opacity="0.46095395404540507"></circle><circle r="6.11366803068403" cx="409.63210502285006" cy="616.9054338279311" opacity="0.935034585786423"></circle><circle r="11.835759080599107" cx="176.56959647965968" cy="212.63898899241914" opacity="0.6487504688219639"></circle><circle r="7.946414566026572" cx="731.701019203319" cy="655.0776879579169" opacity="0.9145503963142609"></circle><circle r="13.44446455954591" cx="335.68155392733274" cy="27.751763589813805" opacity="0.12774404637079004"></circle><circle r="10.228810398709756" cx="335.5353522554421" cy="596.1410175543521" opacity="0.4350773886210263"></circle><circle r="5.70820903671856" cx="151.93295143535838" cy="648.3484244875258" opacity="0.8552997624580714"></circle><circle r="11.521057068372201" cx="624.9435155154997" cy="24.352669546465727" opacity="0.7780708336709518"></circle><circle r="12.622915391731734" cx="771.3962129176045" cy="770.4500670379525" opacity="0.4850969881890189"></circle><circle r="9.068194709895092" cx="206.3121983038014" cy="710.2626556606218" opacity="0.46852269020597903"></circle><circle r="13.181478363725835" cx="103.85400058390732" cy="673.3244067621936" opacity="0.7294585163080678"></circle><circle r="14.527416672928162" cx="735.2669119330264" cy="709.497234942259" opacity="0.19256874859614298"></circle><circle r="7.06087798136964" cx="144.0396448598187" cy="23.812910286871755" opacity="0.2508931258761299"></circle><circle r="8.916770279229056" cx="137.6165245814262" cy="407.76550620353595" opacity="0.33003538338960947"></circle><circle r="8.886662423859827" cx="260.44853159606356" cy="780.8770240836208" opacity="0.9302096031147707"></circle><circle r="8.461056155635568" cx="359.08351500295447" cy="736.5813368582631" opacity="0.5155508929733124"></circle><circle r="12.109258521145897" cx="679.4346028012004" cy="444.13324477217793" opacity="0.5352372098519426"></circle><circle r="8.201010022293207" cx="298.75880696045436" cy="536.9113628497333" opacity="0.377505835718021"></circle><circle r="9.171325096995329" cx="524.0810449729189" cy="257.5006363647967" opacity="0.6097486220891557"></circle><circle r="8.558126644473017" cx="385.0742113312262" cy="133.53362175494956" opacity="0.32832127624461815"></circle><circle r="11.424463406249489" cx="477.6040709535071" cy="624.8934908720631" opacity="0.6347463619494979"></circle><circle r="9.36765365510388" cx="732.1332215934013" cy="610.6788566164046" opacity="0.9125081078455546"></circle><circle r="12.129914923954582" cx="586.8461949420065" cy="623.8846315488778" opacity="0.3290127275303195"></circle><circle r="5.836489271094409" cx="567.1592101111656" cy="251.7535822969132" opacity="0.254952520767124"></circle><circle r="12.190386619579527" cx="504.88660148869553" cy="772.6100555975339" opacity="0.6962504472101831"></circle><circle r="12.048973404299618" cx="350.848949800261" cy="541.1218341655051" opacity="0.7731762699829438"></circle><circle r="11.86221158487606" cx="369.43128270560464" cy="652.4029866216298" opacity="0.8373082787858697"></circle><circle r="8.50799816638245" cx="361.4869483897826" cy="779.5022300251153" opacity="0.40613379902311264"></circle><circle r="14.10826161237749" cx="642.4585232180649" cy="672.3101115407176" opacity="0.8259630009189307"></circle><circle r="7.893072896946862" cx="638.7781188116729" cy="242.34022514969055" opacity="0.36798159745278214"></circle><circle r="9.01442155848842" cx="40.181519441869376" cy="742.997548746887" opacity="0.19308155106327696"></circle><circle r="8.667791485876798" cx="289.28755407979946" cy="600.6316153586389" opacity="0.7029360238706649"></circle><circle r="9.466014791600937" cx="133.3010371435125" cy="611.9169908669637" opacity="0.8513902644137513"></circle><circle r="7.561948431837044" cx="418.3019937584812" cy="772.5362617082808" opacity="0.6831106852465251"></circle><circle r="14.054394350377104" cx="454.8440810729252" cy="526.8859973882281" opacity="0.14836873323947847"></circle><circle r="8.964770088786782" cx="518.1602265252718" cy="51.18183584798965" opacity="0.19823903513467125"></circle><circle r="10.368827611676839" cx="471.99269712407795" cy="735.9814176253233" opacity="0.4255900489927489"></circle><circle r="9.0163197992542" cx="771.715164357185" cy="387.9762350442318" opacity="0.45698253505953335"></circle><circle r="5.888468223063237" cx="630.2835727823917" cy="606.640145647858" opacity="0.26013433436964595"></circle><circle r="9.446374707251438" cx="78.00047701209208" cy="259.47723412329924" opacity="0.621406107718663"></circle><circle r="5.864873885737345" cx="566.8569562458272" cy="20.203396551448623" opacity="0.32949666023256596"></circle><circle r="5.769662453760003" cx="68.30871374174521" cy="426.43359871700954" opacity="0.5890033118283462"></circle><circle r="7.8216840583301455" cx="98.17232243510506" cy="394.56853078067104" opacity="0.23550871652380706"></circle><circle r="8.930384572660715" cx="640.3741136780595" cy="356.94446537877843" opacity="0.9356624772257465"></circle><circle r="10.003765695815998" cx="302.3737581439153" cy="148.36887670665195" opacity="0.5517255462603436"></circle><circle r="4.889953645431182" cx="89.10079754989279" cy="15.225804520504854" opacity="0.8610642569575727"></circle><circle r="7.537141860744773" cx="435.2321923286311" cy="320.7921019943755" opacity="0.614446893671098"></circle><circle r="6.276045141619767" cx="697.2484110045575" cy="314.2780846077328" opacity="0.4579915565742415"></circle><circle r="9.201496472541443" cx="557.5878391744002" cy="574.1172737670666" opacity="0.9041980371446906"></circle><circle r="8.181596507684233" cx="640.3484321750096" cy="314.9297017473826" opacity="0.2797751081672447"></circle><circle r="7.505536925587937" cx="469.6654516749839" cy="119.88820498980003" opacity="0.5165244531931165"></circle><circle r="7.888738332686511" cx="253.55408652523607" cy="717.4486721939387" opacity="0.9175135945355675"></circle><circle r="5.3066662581196615" cx="51.40132355395012" cy="783.9188915263965" opacity="0.591203622971009"></circle><circle r="9.345993776734687" cx="734.1689526316742" cy="227.9117257495734" opacity="0.32685974635959425"></circle><circle r="10.470206709296601" cx="247.1344605806" cy="412.76728305498347" opacity="0.7488499603497552"></circle><circle r="14.212028144073143" cx="90.88074879923546" cy="488.51057378894905" opacity="0.2633459779846029"></circle><circle r="5.468362155767526" cx="193.90402304356792" cy="612.9679993553104" opacity="0.5110167612913549"></circle><circle r="6.370056329149874" cx="163.37376144357356" cy="454.6427822900939" opacity="0.6032718420384794"></circle><circle r="11.037814814694347" cx="614.6713758841283" cy="448.7751444557903" opacity="0.24523625652441766"></circle><circle r="6.817993595505534" cx="398.0966276972905" cy="306.92746118761926" opacity="0.11065722922607385"></circle><circle r="6.463576146287067" cx="387.97547530846515" cy="210.0856208037743" opacity="0.41685798653084405"></circle><circle r="5.764864171014297" cx="293.89856098070544" cy="754.3037323960187" opacity="0.24926737024897389"></circle><circle r="9.726062864510393" cx="250.50673223587657" cy="458.27292549777394" opacity="0.9725074831422842"></circle><circle r="10.14095533103426" cx="262.15808122928024" cy="20.388515316710688" opacity="0.7625944664180753"></circle><circle r="5.287991714336961" cx="25.03647722607683" cy="277.58926365160727" opacity="0.6475614926670474"></circle><circle r="9.310938306818677" cx="570.3876885800781" cy="155.44759213362173" opacity="0.6678825417231199"></circle><circle r="9.3783715816819" cx="422.86656582556384" cy="364.3531096061407" opacity="0.14917108930682052"></circle><circle r="11.62903135795069" cx="709.1831513401453" cy="773.7834231975837" opacity="0.4734261310295125"></circle><circle r="13.118976174187056" cx="145.7682452514847" cy="132.59292305498244" opacity="0.5381373685801853"></circle><circle r="7.509196304043329" cx="527.7250813645276" cy="609.4427237595891" opacity="0.5344324715766027"></circle><circle r="5.341931967760749" cx="675.6350527530562" cy="279.80043061994417" opacity="0.6614081477277509"></circle><circle r="6.021487478633867" cx="266.8452811050512" cy="368.157998048737" opacity="0.5252192259457618"></circle><circle r="7.842621184039068" cx="574.5438532785387" cy="672.7653560301325" opacity="0.4055560076620094"></circle><circle r="6.545253813924882" cx="18.055231696975437" cy="353.9779342539076" opacity="0.5434494088277487"></circle><circle r="8.085291989747866" cx="632.8089672093339" cy="202.06423536411202" opacity="0.9874572892769746"></circle><circle r="6.665959551003878" cx="12.797013504708566" cy="765.1794307641484" opacity="0.17613955795572145"></circle><circle r="10.47762784141857" cx="489.68983931568323" cy="408.2104464432235" opacity="0.35991977607213266"></circle><circle r="10.72294507536425" cx="579.586692278256" cy="79.33964799289146" opacity="0.15857042319126732"></circle><circle r="6.421369608387385" cx="419.88524477969884" cy="261.49895466189406" opacity="0.35278054431009864"></circle><circle r="10.404660263446088" cx="308.72090390884284" cy="193.5407277706744" opacity="0.2190261360380807"></circle><circle r="8.127208288173787" cx="193.46328783729732" cy="422.7299137762954" opacity="0.34332038666090914"></circle><circle r="12.533232229663145" cx="557.8553987584149" cy="430.5657864797668" opacity="0.589340589421283"></circle><circle r="8.350046725668882" cx="602.3492485236012" cy="550.8641353441758" opacity="0.6336348425456934"></circle><circle r="9.581665643068527" cx="524.3758991010499" cy="666.2173485705963" opacity="0.7034303018102965"></circle><circle r="8.622741404895345" cx="45.11614454923999" cy="551.1886431196114" opacity="0.5611625919177514"></circle><circle r="7.0606622755905" cx="702.6445887707763" cy="396.9395047731837" opacity="0.16707302639742455"></circle><circle r="11.839473701777555" cx="34.4983251576578" cy="620.1797860363073" opacity="0.8524159633584154"></circle><circle r="14.091457331939633" cx="459.5059748466379" cy="33.30890714017989" opacity="0.9444548299066082"></circle><circle r="6.016848561204" cx="241.06832828780912" cy="80.41571941820196" opacity="0.9417573474288176"></circle><circle r="12.830437833042712" cx="527.5633356558575" cy="123.26711216002683" opacity="0.3930899577232545"></circle><circle r="7.225723711987463" cx="778.2877771617408" cy="41.43176537424618" opacity="0.6369230196568155"></circle><circle r="6.212976614787142" cx="766.0716750048668" cy="289.8273555559237" opacity="0.9202643704520942"></circle><circle r="10.550803488128858" cx="629.3451592773074" cy="77.93289130797669" opacity="0.2724237569926993"></circle><circle r="8.773899591540442" cx="434.77715417839755" cy="452.373635594176" opacity="0.4538947286733028"></circle><circle r="10.622576575879664" cx="271.1759373955144" cy="289.2861227819285" opacity="0.7747154807454089"></circle><circle r="9.088265183530686" cx="398.3834943849889" cy="402.5773915891143" opacity="0.825630225071032"></circle><circle r="10.016076654780868" cx="777.2236244907012" cy="576.0888357207477" opacity="0.7008155159788569"></circle><circle r="7.15504231741434" cx="137.31127947115468" cy="737.2576264702217" opacity="0.29136731578992714"></circle><circle r="10.219323135208956" cx="215.01744395519296" cy="174.13349964204951" opacity="0.4317110454005558"></circle><circle r="7.088376345077556" cx="76.2960387762494" cy="723.1700837125752" opacity="0.7199457212200945"></circle><circle r="10.147876831751413" cx="370.26325821557566" cy="445.6694795167945" opacity="0.7935617517704743"></circle><circle r="6.297350429416909" cx="433.87538692858476" cy="195.57556324453037" opacity="0.6344146060263508"></circle><circle r="7.5737359684976" cx="36.77267164328033" cy="385.97691996455" opacity="0.6232498210695119"></circle><circle r="6.8999916080423205" cx="578.0304913670398" cy="716.3611312267224" opacity="0.7428168552041519"></circle><circle r="5.96176421469959" cx="699.3943774911388" cy="486.17139400816075" opacity="0.42935205940958965"></circle><circle r="5.9280504803942335" cx="426.8594079573391" cy="652.3275631408435" opacity="0.3023241073089188"></circle><circle r="10.589022859902192" cx="523.222166771409" cy="309.9375904659172" opacity="0.5426742052692102"></circle><circle r="7.467422329329438" cx="683.9806084802503" cy="61.53120963624884" opacity="0.8866967072033423"></circle><circle r="5.338440924457124" cx="602.6767562999552" cy="246.23646478307322" opacity="0.6919119390892535"></circle><circle r="9.430825370261736" cx="692.5222592098141" cy="653.9404023077078" opacity="0.35511047631934045"></circle><circle r="6.786756733266963" cx="321.5040209290546" cy="320.7710534822352" opacity="0.47699033368171073"></circle><circle r="6.705224853328817" cx="182.13188219309168" cy="577.6637746727912" opacity="0.6234728798390772"></circle><circle r="6.420809532340597" cx="676.1935605840861" cy="570.4312736057117" opacity="0.2777981070128786"></circle><circle r="11.725961920114434" cx="424.4286266165387" cy="98.5678453375694" opacity="0.7602359890205419"></circle><circle r="12.123085371888518" cx="586.3155728685139" cy="309.4090871890383" opacity="0.6266392090636191"></circle><circle r="7.806895321014867" cx="442.85090744552554" cy="583.1442433261093" opacity="0.9785729912153474"></circle><circle r="5.609191741255765" cx="321.0260960787275" cy="277.78631096500914" opacity="0.8952604852709912"></circle><circle r="6.467862234798607" cx="149.41556211253584" cy="538.6895232044594" opacity="0.7684113169530512"></circle><circle r="4.608328657724063" cx="673.744035190539" cy="17.229282198427608" opacity="0.24284974284607133"></circle><circle r="8.165869776071379" cx="517.7482619297093" cy="536.6053486986958" opacity="0.5634190605723035"></circle><circle r="9.078516309092347" cx="152.597024054676" cy="357.3214995349231" opacity="0.9602370021039034"></circle><circle r="10.305733152147656" cx="343.73716623119395" cy="689.8542516225464" opacity="0.22352139448660852"></circle><circle r="6.79040061632768" cx="208.7240641254063" cy="127.99643287062297" opacity="0.6470955111634449"></circle></g></svg>